<?xml version="1.0" encoding="utf-8"?>
<svg xmlns="http://www.w3.org/2000/svg" viewBox="-0.6095 -0.4411 1595.7554 524.4411" width="1595.76px" height="524.441px" preserveAspectRatio="none"><g id="object-0"><path d="M 697 169 C 727.484 168.938 757.968 168.876 789.375 168.813 C 798.974 168.785 808.573 168.758 818.462 168.73 C 830.251 168.716 830.251 168.716 835.783 168.714 C 839.618 168.711 843.453 168.7 847.288 168.683 C 852.201 168.662 857.114 168.657 862.026 168.661 C 863.816 168.66 865.606 168.654 867.396 168.642 C 897.102 168.457 922.234 175.874 944 197 C 959.763 213.722 967.449 234.35 967.313 257.188 C 967.307 258.188 967.301 259.188 967.295 260.219 C 966.924 283.134 958.888 305.177 943 322 C 940.445 324.195 937.829 326.173 935 328 C 937.92 330.449 940.893 332.561 944.125 334.563 C 964.593 348.208 975.991 371.546 981 395 C 985.768 420.153 982.243 447.119 968.242 468.711 C 966.585 470.908 964.839 472.953 963 475 C 962.346 475.794 961.693 476.588 961.02 477.406 C 948.306 492.413 931.125 502.503 912 507 C 911.33 507.167 910.659 507.334 909.968 507.507 C 900.392 509.59 890.77 509.265 881.025 509.227 C 878.981 509.226 876.937 509.227 874.893 509.228 C 869.445 509.228 863.996 509.217 858.548 509.203 C 853.426 509.191 848.304 509.191 843.182 509.189 C 828.225 509.179 813.269 509.151 798.313 509.125 C 748.163 509.063 748.163 509.063 697 509 C 697 396.8 697 284.6 697 169 Z M 789 255 C 789 268.2 789 281.4 789 295 C 800.357 295.116 800.357 295.116 811.715 295.195 C 816.352 295.219 820.989 295.247 825.625 295.302 C 829.367 295.345 833.108 295.369 836.849 295.38 C 838.272 295.387 839.694 295.401 841.116 295.423 C 850.247 295.557 856.783 295.321 864.023 289.324 C 868.296 284.15 870.296 279.455 870 272.625 C 869.205 267.279 866.83 262.801 863 259 C 855.609 254.108 848.331 254.481 839.781 254.609 C 838.313 254.617 836.845 254.623 835.376 254.627 C 831.536 254.642 827.696 254.681 823.856 254.725 C 819.235 254.774 814.614 254.792 809.993 254.815 C 802.995 254.854 795.998 254.93 789 255 Z M 789 376 C 789 391.84 789 407.68 789 424 C 802.264 424.116 802.264 424.116 815.527 424.195 C 820.943 424.219 826.359 424.247 831.775 424.302 C 836.145 424.345 840.515 424.369 844.885 424.38 C 846.546 424.387 848.207 424.401 849.868 424.423 C 859.892 424.549 869.113 424.556 877.402 418.141 C 882.638 411.693 885.694 405.762 885.344 397.293 C 884.309 390.39 880.922 385.367 876.074 380.508 C 870.659 376.571 865.633 375.559 859.045 375.659 C 858.283 375.659 857.522 375.659 856.737 375.658 C 854.242 375.66 851.748 375.683 849.254 375.707 C 847.515 375.713 845.776 375.717 844.038 375.72 C 839.479 375.731 834.92 375.761 830.362 375.794 C 824.882 375.83 819.403 375.844 813.924 375.861 C 805.616 375.89 797.308 375.948 789 376 Z" style="fill: rgb(255, 255, 255);"/><path d="M 423 169 C 498.9 169 574.8 169 653 169 C 653 198.7 653 228.4 653 259 C 608.12 259 563.24 259 517 259 C 517 270.55 517 282.1 517 294 C 556.93 294 596.86 294 638 294 C 638 323.37 638 352.74 638 383 C 598.07 383 558.14 383 517 383 C 517 395.21 517 407.42 517 420 C 562.87 420 608.74 420 656 420 C 656 449.37 656 478.74 656 509 C 594.155 511.381 539.94 508.848 480.684 490.625 C 469.544 487.201 458.277 484.337 446.974 481.501 C 442.454 480.36 437.945 479.176 433.438 477.984 C 432.711 477.794 431.984 477.603 431.235 477.407 C 428.459 476.674 425.725 475.908 423 475 C 423 374.02 423 273.04 423 169 Z" style="fill: rgb(255, 255, 255);"/><path d="M 1553 193 C 1554.23 194.029 1554.23 194.029 1555.48 195.078 C 1573.88 210.914 1585.97 231.788 1589 256 C 1589 260.95 1589 265.9 1589 271 C 1556.99 271 1524.98 271 1492 271 C 1491.01 267.7 1490.02 264.4 1489 261 C 1485.55 255.253 1479.95 252.011 1473.73 249.879 C 1462.56 247.245 1451.99 248.3 1442.13 254.098 C 1438.45 256.697 1436.84 259.507 1436.06 263.82 C 1435.92 268.665 1437.36 272.748 1440.2 276.656 C 1451.8 288.134 1473.02 291.555 1488.16 295.684 C 1517.1 303.594 1545.11 313.89 1568 334 C 1568.6 334.503 1569.19 335.005 1569.81 335.523 C 1580.43 345.191 1586.96 358.441 1591 372 C 1591.34 373.097 1591.68 374.194 1592.03 375.324 C 1598.73 401.926 1594.39 432.223 1581.27 456.148 C 1563.95 484.384 1535.88 503.663 1503.89 511.519 C 1494.27 513.723 1484.66 515.142 1474.79 515.203 C 1474.03 515.21 1473.28 515.217 1472.49 515.225 C 1440.61 515.454 1440.61 515.454 1427 512 C 1426.2 511.801 1425.4 511.603 1424.57 511.398 C 1392.32 503.14 1363.68 484.431 1346.11 455.668 C 1336.51 439.328 1333 421.793 1333 403 C 1365.34 403 1397.68 403 1431 403 C 1431.66 406.3 1432.32 409.6 1433 413 C 1438.15 421.764 1445.27 426.185 1455 428.875 C 1466.39 431.316 1477.88 430.466 1488 424.25 C 1492.08 421.228 1494.21 418.789 1496 414 C 1496.47 409.262 1495.65 405.297 1492.81 401.438 C 1480.49 388.97 1461.78 385.542 1445.48 381.289 C 1410.07 372.05 1370.58 357.235 1350.85 324.059 C 1336.44 298.272 1334.16 268.362 1342.07 240.078 C 1349.79 214.232 1368.52 192.611 1392.06 179.707 C 1395.97 177.658 1399.96 175.788 1404 174 C 1405.09 173.518 1406.18 173.036 1407.3 172.539 C 1453.13 153.705 1515.24 159.753 1553 193 Z" style="fill: rgb(255, 255, 255);"/><path d="M 1162.48 288.615 C 1165.26 290.142 1167.99 291.698 1170.7 293.352 C 1171.81 294.03 1172.92 294.708 1174.07 295.406 C 1175.28 296.146 1176.48 296.885 1177.69 297.625 C 1178.95 298.394 1180.2 299.162 1181.46 299.93 C 1190.72 305.585 1199.96 311.277 1209.2 316.973 C 1217.18 321.888 1225.18 326.766 1233.19 331.625 C 1233.77 331.979 1234.35 332.333 1234.96 332.697 C 1237.85 334.451 1240.74 336.204 1243.63 337.957 C 1248.94 341.177 1254.25 344.4 1259.56 347.625 C 1260.91 348.44 1260.91 348.44 1262.28 349.272 C 1263.99 350.313 1265.7 351.36 1267.4 352.415 C 1269.23 353.532 1271.09 354.615 1272.95 355.671 C 1274.41 356.526 1274.41 356.526 1275.9 357.398 C 1276.78 357.898 1277.66 358.397 1278.57 358.912 C 1284.49 363.996 1286.45 372.63 1288.96 379.781 C 1289.33 380.84 1289.71 381.898 1290.1 382.988 C 1291.34 386.491 1292.58 389.995 1293.81 393.5 C 1295.37 397.893 1296.93 402.285 1298.49 406.677 C 1299.19 408.661 1299.9 410.645 1300.6 412.629 C 1304.11 422.506 1307.64 432.373 1311.19 442.234 C 1311.57 443.304 1311.57 443.304 1311.96 444.395 C 1314.24 450.707 1316.51 457.019 1318.78 463.331 C 1319.73 465.972 1320.68 468.612 1321.63 471.253 C 1322.49 473.638 1323.35 476.022 1324.21 478.407 C 1327.87 488.583 1331.43 498.791 1335 509 C 1300.35 509 1265.7 509 1230 509 C 1216 466 1216 466 1216 463 C 1176.4 463.33 1136.8 463.66 1096 464 C 1091.38 478.19 1086.76 492.38 1082 507 C 1081.67 507.66 1081.34 508.32 1081 509 C 1047.34 509 1013.68 509 979 509 C 980.875 502.124 982.752 495.54 985.203 488.895 C 985.514 488.041 985.824 487.187 986.145 486.307 C 986.821 484.45 987.499 482.594 988.178 480.738 C 990.068 475.58 991.943 470.416 993.82 465.254 C 994.226 464.139 994.632 463.024 995.051 461.875 C 998.388 452.705 1001.7 443.524 1004.99 434.34 C 1005.25 433.632 1005.5 432.924 1005.76 432.195 C 1008.05 425.832 1010.33 419.47 1012.61 413.107 C 1012.85 412.433 1013.09 411.759 1013.34 411.066 C 1013.82 409.727 1014.3 408.388 1014.78 407.049 C 1015.93 403.837 1017.09 400.628 1018.26 397.423 C 1020.22 392.044 1022.13 386.681 1023.78 381.198 C 1026.71 371.742 1029.21 366.19 1038.25 361.1 C 1039.42 360.51 1040.6 359.92 1041.81 359.313 C 1043.07 358.628 1044.32 357.937 1045.56 357.24 C 1048.11 355.818 1050.68 354.423 1053.26 353.045 C 1058.99 349.951 1064.48 346.46 1070 343 C 1072.14 341.678 1074.28 340.357 1076.43 339.039 C 1077.5 338.379 1078.57 337.72 1079.67 337.04 C 1085.5 333.466 1091.34 329.919 1097.19 326.375 C 1097.78 326.018 1098.36 325.661 1098.97 325.293 C 1101.88 323.53 1104.79 321.767 1107.7 320.003 C 1111.74 317.552 1115.78 315.098 1119.82 312.641 C 1121.67 311.516 1123.53 310.393 1125.38 309.273 C 1130.03 306.455 1134.65 303.598 1139.22 300.662 C 1141.61 299.136 1143.99 297.624 1146.38 296.112 C 1147.54 295.376 1148.68 294.634 1149.83 293.885 C 1151.42 292.844 1153.03 291.828 1154.63 290.813 C 1155.55 290.221 1156.47 289.629 1157.41 289.02 C 1160 288 1160 288 1162.48 288.615 Z M 1116 346 C 1114.25 349.496 1114.77 353.46 1114.75 357.313 C 1114.73 358.168 1114.71 359.023 1114.69 359.904 C 1114.66 364.719 1114.72 368.181 1118 372 C 1121.67 374.914 1126.47 374.33 1130.94 374.313 C 1131.74 374.329 1132.54 374.345 1133.36 374.361 C 1138.06 374.365 1141.21 374.073 1145 371 C 1147.83 366.755 1147.37 363.117 1147.38 358.125 C 1147.41 356.777 1147.41 356.777 1147.45 355.402 C 1147.47 351.09 1147.41 348.667 1145.1 344.93 C 1140.88 341.055 1136.67 341.745 1131.19 341.688 C 1130.29 341.658 1129.38 341.629 1128.45 341.6 C 1123.03 341.548 1119.86 341.776 1116 346 Z M 1172 346 C 1170.67 350.001 1170.78 353.685 1170.75 357.875 C 1170.73 358.678 1170.71 359.481 1170.69 360.309 C 1170.66 365.007 1170.84 368.255 1174 372 C 1177.67 374.914 1182.47 374.33 1186.94 374.313 C 1187.74 374.329 1188.54 374.345 1189.36 374.361 C 1194.06 374.365 1197.21 374.073 1201 371 C 1203.83 366.755 1203.37 363.117 1203.38 358.125 C 1203.41 356.777 1203.41 356.777 1203.45 355.402 C 1203.47 351.09 1203.41 348.667 1201.1 344.93 C 1196.88 341.055 1192.67 341.745 1187.19 341.688 C 1186.29 341.658 1185.38 341.629 1184.45 341.6 C 1179.06 341.548 1175.79 341.732 1172 346 Z M 1116 403 C 1114.25 406.496 1114.77 410.46 1114.75 414.313 C 1114.73 415.168 1114.71 416.023 1114.69 416.904 C 1114.66 421.749 1114.79 425.094 1118 429 C 1121.86 430.932 1126.62 430.228 1130.88 430.25 C 1132.38 430.281 1132.38 430.281 1133.93 430.313 C 1135.38 430.32 1135.38 430.32 1136.87 430.328 C 1137.76 430.337 1138.64 430.347 1139.56 430.356 C 1142.52 429.925 1143.85 429.054 1146 427 C 1147.39 422.839 1147.18 418.92 1147.19 414.563 C 1147.21 413.274 1147.21 413.274 1147.22 411.959 C 1147.23 411.128 1147.23 410.297 1147.23 409.441 C 1147.23 408.685 1147.24 407.929 1147.24 407.151 C 1146.96 404.66 1146.34 403.113 1145 401 C 1140.65 398.103 1136.74 398.632 1131.63 398.625 C 1130.68 398.601 1129.73 398.576 1128.76 398.551 C 1123.26 398.528 1119.9 398.683 1116 403 Z M 1172 403 C 1170.25 406.496 1170.77 410.46 1170.75 414.313 C 1170.73 415.168 1170.71 416.023 1170.69 416.904 C 1170.66 421.749 1170.79 425.094 1174 429 C 1177.86 430.931 1182.56 430.315 1186.81 430.375 C 1187.81 430.412 1188.81 430.45 1189.84 430.488 C 1194.4 430.543 1197.2 430.477 1201.17 428.105 C 1203.78 423.672 1203.62 419.986 1203.44 414.938 C 1203.43 414.04 1203.43 413.142 1203.42 412.217 C 1203.34 406.322 1203.34 406.322 1201 401 C 1196.65 398.103 1192.74 398.632 1187.63 398.625 C 1186.68 398.601 1185.73 398.576 1184.76 398.551 C 1179.26 398.528 1175.9 398.683 1172 403 Z" style="fill: rgb(255, 255, 255);"/><path d="M 1102.87 168.877 C 1104.11 168.878 1104.11 168.878 1105.37 168.88 C 1106.32 168.878 1107.26 168.877 1108.23 168.876 C 1109.28 168.879 1110.32 168.883 1111.39 168.886 C 1112.49 168.886 1113.58 168.886 1114.71 168.886 C 1118.34 168.887 1121.97 168.895 1125.6 168.902 C 1128.11 168.904 1130.62 168.906 1133.13 168.907 C 1139.07 168.91 1145.01 168.918 1150.95 168.928 C 1158.38 168.94 1165.81 168.946 1173.24 168.951 C 1186.49 168.962 1199.74 168.979 1213 169 C 1213.58 170.62 1214.16 172.24 1214.75 173.859 C 1215.33 175.475 1215.33 175.475 1215.92 177.123 C 1216.81 179.592 1217.69 182.061 1218.58 184.53 C 1220.85 190.844 1223.12 197.158 1225.39 203.472 C 1226.72 207.176 1228.05 210.881 1229.38 214.586 C 1229.65 215.339 1229.92 216.093 1230.2 216.869 C 1234 227.429 1237.79 237.99 1241.59 248.551 C 1243.13 252.842 1244.67 257.133 1246.21 261.424 C 1247.43 264.828 1248.65 268.231 1249.88 271.635 C 1251.25 275.458 1252.62 279.28 1254 283.102 C 1254.42 284.293 1254.85 285.484 1255.29 286.711 C 1257.32 292.361 1259.37 298.007 1261.43 303.644 C 1262 305.186 1262 305.186 1262.58 306.76 C 1263.28 308.674 1263.98 310.587 1264.69 312.499 C 1265 313.332 1265.31 314.166 1265.62 315.025 C 1265.89 315.749 1266.16 316.473 1266.43 317.22 C 1267 319 1267 319 1267 321 C 1261.98 319.265 1257.64 316.501 1253.13 313.75 C 1251.81 312.955 1251.81 312.955 1250.47 312.144 C 1247.64 310.433 1244.82 308.717 1242 307 C 1240.16 305.885 1238.32 304.771 1236.48 303.656 C 1226.34 297.5 1216.22 291.293 1206.13 285.063 C 1197.12 279.507 1188.08 274.008 1179 268.563 C 1177.39 267.595 1177.39 267.595 1175.74 266.608 C 1168.66 262.368 1164.42 259.885 1156 261 C 1153.38 262.095 1153.38 262.095 1150.82 263.621 C 1149.87 264.168 1148.91 264.714 1147.92 265.277 C 1143.34 267.98 1138.78 270.713 1134.25 273.5 C 1132.22 274.742 1130.19 275.984 1128.16 277.227 C 1126.62 278.169 1126.62 278.169 1125.06 279.13 C 1121.21 281.484 1117.36 283.825 1113.5 286.166 C 1104.38 291.707 1095.28 297.281 1086.19 302.875 C 1085.12 303.53 1084.05 304.185 1082.95 304.861 C 1077.79 308.032 1072.64 311.216 1067.52 314.445 C 1065.12 315.959 1062.71 317.465 1060.3 318.971 C 1059.15 319.695 1058 320.422 1056.85 321.153 C 1055.26 322.165 1053.66 323.163 1052.07 324.16 C 1051.16 324.734 1050.25 325.308 1049.32 325.899 C 1047 327 1047 327 1044 326 C 1055.48 293.796 1067 261.605 1078.6 229.442 C 1081.01 222.762 1083.41 216.079 1085.8 209.395 C 1087.48 204.706 1089.16 200.018 1090.85 195.33 C 1091.65 193.08 1092.46 190.83 1093.26 188.58 C 1094.37 185.478 1095.48 182.378 1096.6 179.277 C 1097.1 177.883 1097.1 177.883 1097.6 176.46 C 1097.9 175.619 1098.21 174.777 1098.52 173.91 C 1098.78 173.175 1099.05 172.439 1099.32 171.682 C 1100.23 169.427 1100.4 169.039 1102.87 168.877 Z" style="fill: rgb(255, 255, 255);"/><path d="M 58.245 151.619 C 59.525 151.614 60.805 151.61 62.124 151.605 C 65.642 151.592 69.16 151.598 72.679 151.608 C 76.487 151.615 80.294 151.604 84.102 151.596 C 91.548 151.583 98.994 151.585 106.44 151.594 C 112.495 151.601 118.55 151.602 124.604 151.599 C 125.9 151.598 125.9 151.598 127.221 151.597 C 128.976 151.596 130.731 151.595 132.485 151.594 C 148.917 151.586 165.349 151.596 181.781 151.612 C 195.862 151.625 209.944 151.623 224.026 151.609 C 240.401 151.593 256.776 151.587 273.152 151.596 C 274.9 151.597 276.648 151.598 278.396 151.599 C 279.686 151.599 279.686 151.599 281.002 151.6 C 287.045 151.603 293.088 151.598 299.132 151.591 C 306.502 151.583 313.873 151.585 321.243 151.601 C 325 151.609 328.756 151.612 332.513 151.602 C 336.593 151.591 340.674 151.604 344.755 151.619 C 346.517 151.609 346.517 151.609 348.315 151.599 C 363.006 151.703 376.112 155.584 386.961 165.762 C 395.441 175.071 399.384 186.752 399.215 199.223 C 398.257 211.604 393.132 222.572 384 231 C 372.739 239.514 361.067 242.986 347 242 C 332.978 239.883 321.898 233.97 313.141 222.582 C 307.899 214.421 306 206.648 306 197 C 314.25 197 322.5 197 331 197 C 332.32 200.63 333.64 204.26 335 208 C 337.999 213.22 342.393 215.276 348 217 C 353.689 217.961 358.979 216.704 364 214 C 368.326 210.347 371.666 206.617 372.398 200.879 C 372.388 192.524 372.388 192.524 369 185 C 368.67 184.01 368.34 183.02 368 182 C 366.354 180.881 366.354 180.881 364 180 C 362.336 179.238 362.336 179.238 360.638 178.461 C 354.971 176.361 349.338 176.585 343.361 176.619 C 342.098 176.614 340.835 176.61 339.534 176.605 C 336.044 176.592 332.555 176.599 329.065 176.608 C 325.295 176.615 321.526 176.604 317.756 176.596 C 310.378 176.583 302.999 176.585 295.621 176.594 C 289.623 176.601 283.626 176.602 277.628 176.599 C 276.774 176.598 275.92 176.598 275.04 176.597 C 273.304 176.596 271.569 176.595 269.834 176.594 C 253.568 176.586 237.302 176.596 221.037 176.612 C 207.085 176.625 193.134 176.623 179.183 176.609 C 162.975 176.593 146.767 176.587 130.559 176.596 C 128.83 176.597 127.101 176.598 125.372 176.599 C 124.521 176.599 123.671 176.599 122.794 176.6 C 116.805 176.603 110.816 176.598 104.827 176.591 C 97.526 176.583 90.226 176.585 82.925 176.601 C 79.202 176.609 75.479 176.612 71.755 176.602 C 67.716 176.591 63.678 176.604 59.639 176.619 C 57.879 176.609 57.879 176.609 56.083 176.599 C 48.825 176.651 42.482 177.037 36.723 181.938 C 35.901 182.958 35.901 182.958 35.062 184 C 34.497 184.681 33.931 185.361 33.348 186.063 C 29.877 191.052 30.591 197.186 31 203 C 32.731 208.5 36.35 211.787 41 215 C 46.474 217.562 51.852 218.076 57.559 216.125 C 63.173 213.589 67.472 210.762 70 205 C 70.66 202.36 71.32 199.72 72 197 C 80.25 197 88.5 197 97 197 C 97 209.844 93.141 219.584 84.5 229.188 C 74.624 238.533 61.455 242.521 48.113 242.25 C 34.84 241.184 22.998 235.877 14 226 C 7.497 217.07 4.435 208.7 4.562 197.688 C 4.572 196.758 4.581 195.828 4.59 194.87 C 4.897 182.707 8.977 174.165 17 165 C 19.503 162.662 22.075 160.774 25 159 C 25.614 158.624 26.227 158.247 26.859 157.859 C 36.626 152.451 47.294 151.557 58.245 151.619 Z" style="fill: rgb(255, 255, 255);"/><path d="M 70.313 -0.437 C 71.497 -0.429 72.682 -0.421 73.903 -0.412 C 92.917 -0.046 109.27 6.548 123 20 C 129.438 27.598 134.433 35.129 136 45 C 131.126 45.174 126.253 45.3 121.376 45.385 C 119.719 45.42 118.062 45.467 116.406 45.528 C 102.576 46.023 102.576 46.023 98.731 43.527 C 97.279 41.758 96.164 39.965 95 38 C 85.38 31.076 74.708 28.613 63.082 30.465 C 51.794 32.883 43.687 38.574 37 48 C 31.316 58.892 30.406 70.545 33.965 82.266 C 37.763 92.3 43.933 99.861 53.75 104.375 C 63.007 108.204 75.242 108.927 84.688 105.25 C 86.146 104.541 87.587 103.795 89 103 C 90.052 102.423 91.104 101.845 92.188 101.25 C 97.223 97.222 101.115 92.77 104 87 C 94.1 87 84.2 87 74 87 C 74 77.76 74 68.52 74 59 C 95.45 59 116.9 59 139 59 C 139 84.41 139 109.82 139 136 C 130.09 136 121.18 136 112 136 C 111.67 131.71 111.34 127.42 111 123 C 109.948 124.031 108.896 125.063 107.813 126.125 C 94.572 137.698 78.456 138.877 61.719 138.195 C 42.188 136.792 25.686 126.475 13 112 C -0.077 95.011 -2.188 74.244 0.3 53.496 C 3.422 35.94 14.501 21.12 28.863 10.969 C 41.881 2.798 55.034 -0.576 70.313 -0.437 Z" style="fill: rgb(255, 255, 255);"/><path d="M 601.063 -0.25 C 602.227 -0.271 603.392 -0.291 604.592 -0.312 C 624.624 -0.402 640.192 7.18 654.684 20.629 C 667.558 33.807 672.886 51.019 673.375 69.063 C 672.942 85.598 668.067 99.953 658 113 C 656.855 114.547 656.855 114.547 655.688 116.125 C 643.085 129.607 626.017 137.337 607.656 138.379 C 587.013 139.054 568.423 134.294 552.527 120.43 C 538.599 107.04 531.257 90.681 530.651 71.32 C 530.439 52.334 535.811 36.593 548 22 C 548.814 21.014 548.814 21.014 549.645 20.008 C 562.997 5.337 581.883 -0.167 601.063 -0.25 Z M 570.465 43.926 C 563.415 53.908 561.793 64.991 563 77 C 565.373 88.057 572.023 96.377 581 103 C 591.078 109.047 603.125 109.802 614.5 107.199 C 625.69 102.959 633.958 94.771 639 84 C 642.7 73.909 642.315 61.846 638 52 C 632.715 42.012 625.735 34.805 614.93 30.887 C 598.31 26.402 581.627 30.138 570.465 43.926 Z" style="fill: rgb(255, 255, 255);"/><path d="M 159 2 C 175.675 1.876 175.675 1.876 192.688 1.75 C 197.913 1.695 197.913 1.695 203.245 1.64 C 207.566 1.622 207.566 1.622 209.602 1.618 C 210.996 1.612 212.389 1.598 213.783 1.578 C 229.828 1.353 242.228 4.748 254.188 15.625 C 262.295 24.121 265.935 34.831 266.027 46.414 C 265.426 60.58 260.912 70.578 250.688 80.25 C 246.491 83.876 242.199 86.132 237 88 C 240.69 95.742 245.185 101.309 253 105 C 257.62 105.66 262.24 106.32 267 107 C 267 116.57 267 126.14 267 136 C 250.588 136.547 235.054 135.59 222.05 124.308 C 216.739 119.171 212.939 113.654 209.188 107.313 C 208.629 106.389 208.07 105.465 207.494 104.514 C 205.985 102.015 204.491 99.509 203 97 C 202.446 96.117 201.892 95.234 201.322 94.325 C 200 92 200 92 200 90 C 196.7 90 193.4 90 190 90 C 190 105.18 190 120.36 190 136 C 179.77 136 169.54 136 159 136 C 159 91.78 159 47.56 159 2 Z M 190 31 C 190 41.56 190 52.12 190 63 C 194.591 63.092 199.178 63.172 203.77 63.22 C 205.329 63.24 206.889 63.267 208.448 63.302 C 210.697 63.351 212.946 63.373 215.195 63.391 C 215.886 63.411 216.577 63.432 217.289 63.453 C 222.336 63.455 225.103 62.133 229 59 C 232.317 55.325 233.824 52.792 234.313 47.813 C 233.825 41.862 231.76 37.675 227.438 33.563 C 223.216 30.857 219.552 30.866 214.707 30.902 C 213.415 30.905 212.123 30.907 210.792 30.91 C 209.149 30.919 207.506 30.928 205.813 30.938 C 200.594 30.958 195.376 30.979 190 31 Z" style="fill: rgb(255, 255, 255);"/><path d="M 281 2 C 290.9 2 300.8 2 311 2 C 311.02 4.437 311.04 6.874 311.06 9.385 C 311.127 17.459 311.205 25.534 311.288 33.608 C 311.337 38.501 311.384 43.394 311.422 48.287 C 311.459 53.014 311.505 57.74 311.558 62.467 C 311.577 64.266 311.592 66.064 311.603 67.862 C 311.62 70.392 311.649 72.921 311.681 75.451 C 311.683 76.185 311.685 76.92 311.688 77.676 C 311.823 86.204 313.262 94.416 319 101 C 326.552 106.944 333.536 107.769 343 107 C 349.743 105.347 354.297 101.81 358 96 C 360.606 90.103 361.444 84.569 361.432 78.176 C 361.443 77.345 361.453 76.515 361.463 75.659 C 361.493 72.949 361.503 70.238 361.512 67.527 C 361.529 65.634 361.547 63.742 361.566 61.849 C 361.613 56.892 361.643 51.936 361.67 46.979 C 361.699 41.911 361.746 36.843 361.791 31.775 C 361.877 21.85 361.943 11.925 362 2 C 372.23 2 382.46 2 393 2 C 393.045 13.006 393.082 24.011 393.104 35.017 C 393.114 40.129 393.128 45.24 393.151 50.352 C 393.173 55.292 393.185 60.233 393.19 65.174 C 393.193 67.051 393.201 68.928 393.211 70.804 C 393.324 91.001 391.533 107.888 376.973 123.121 C 364.97 134.603 350.593 138.495 334.414 138.352 C 319.327 137.943 306.236 132.955 295.254 122.414 C 287.364 113.964 280.864 102.891 280.88 90.988 C 280.878 90.2 280.877 89.412 280.876 88.6 C 280.879 87.745 280.883 86.89 280.886 86.009 C 280.886 85.101 280.886 84.193 280.886 83.258 C 280.887 80.261 280.895 77.263 280.902 74.266 C 280.904 72.186 280.906 70.107 280.907 68.028 C 280.91 62.556 280.92 57.085 280.931 51.614 C 280.942 46.03 280.946 40.447 280.951 34.863 C 280.962 23.909 280.979 12.954 281 2 Z" style="fill: rgb(255, 255, 255);"/><path d="M 415 2 C 426.282 1.918 437.564 1.835 449.188 1.75 C 452.724 1.714 456.26 1.677 459.903 1.64 C 464.288 1.622 464.288 1.622 466.353 1.618 C 467.768 1.612 469.182 1.598 470.597 1.578 C 486.592 1.357 499.187 4.711 511.188 15.625 C 520.845 25.687 523.464 37.808 523.25 51.246 C 522.478 62.838 517.658 74.074 509 82 C 505.484 84.661 501.924 86.989 498 89 C 497.323 89.359 496.645 89.718 495.948 90.087 C 486.235 94.455 475.72 93.431 465.313 93.25 C 455.258 93.126 455.258 93.126 445 93 C 445 107.19 445 121.38 445 136 C 435.1 136 425.2 136 415 136 C 415 91.78 415 47.56 415 2 Z M 445 31 C 445 41.89 445 52.78 445 64 C 449.876 64.092 454.748 64.172 459.624 64.22 C 461.281 64.24 462.937 64.267 464.594 64.302 C 466.982 64.351 469.369 64.373 471.758 64.391 C 472.492 64.411 473.227 64.432 473.984 64.453 C 479.16 64.455 482.011 63.246 486 60 C 490.623 54.752 491.353 51.652 491.281 44.762 C 490.759 39.635 488.124 37.015 484.438 33.688 C 480.147 30.717 476.29 30.867 471.27 30.902 C 470.144 30.904 470.144 30.904 468.996 30.907 C 466.601 30.912 464.207 30.925 461.813 30.938 C 460.188 30.943 458.564 30.947 456.939 30.951 C 452.96 30.961 448.98 30.981 445 31 Z" style="fill: rgb(255, 255, 255);"/><path d="M 119 240 C 127.25 240 135.5 240 144 240 C 144 331.74 144 423.48 144 518 C 126 523 126 523 119 524 C 119 430.28 119 336.56 119 240 Z" style="fill: rgb(255, 255, 255);"/><path d="M 170 240 C 178.25 240 186.5 240 195 240 C 195 327.45 195 414.9 195 505 C 177 510 177 510 170 511 C 170 421.57 170 332.14 170 240 Z" style="fill: rgb(255, 255, 255);"/><path d="M 224 240 C 232.25 240 240.5 240 249 240 C 249 322.83 249 405.66 249 491 C 229.5 497 229.5 497 224 497 C 224 412.19 224 327.38 224 240 Z" style="fill: rgb(255, 255, 255);"/><path d="M 275 240 C 283.25 240 291.5 240 300 240 C 300 318.54 300 397.08 300 478 C 279 484 279 484 275 484 C 275 403.48 275 322.96 275 240 Z" style="fill: rgb(255, 255, 255);"/><path d="M 116 198 C 172.43 198 228.86 198 287 198 C 287 205.92 287 213.84 287 222 C 230.57 222 174.14 222 116 222 C 116 214.08 116 206.16 116 198 Z" style="fill: rgb(255, 255, 255);"/></g></svg>