<svg version="1.1" id="Layer_1" xmlns="http://www.w3.org/2000/svg" xmlns:xlink="http://www.w3.org/1999/xlink" x="0px" y="0px"
	 width="100%" viewBox="0 0 964 239" enable-background="new 0 0 964 239" xml:space="preserve">
<path fill="#FDFEFE" opacity="1.000000" stroke="none" 
	d="
M965.000000,191.000000 
	C965.000000,207.330246 965.000000,223.660507 965.000000,239.993073 
	C643.730347,239.995377 322.460724,239.995377 1.095551,239.995377 
	C1.095551,160.412170 1.095551,80.824173 1.095551,1.118094 
	C322.333313,1.118094 643.666626,1.118094 965.000000,1.118094 
	C965.000000,17.078650 965.000000,33.075439 964.707275,49.545090 
	C964.220276,50.038254 964.026062,50.058563 963.504395,49.821938 
	C956.229919,49.368732 949.265076,49.411282 942.342285,48.893227 
	C937.634338,48.540913 936.105225,49.901390 936.150940,54.846222 
	C936.397034,81.491684 936.272217,108.140625 936.257019,134.788361 
	C936.256104,136.331833 936.093994,137.875214 935.943604,140.539948 
	C934.567749,138.634598 933.879700,137.763855 933.278259,136.836838 
	C915.272705,109.084351 897.292969,81.315041 879.235901,53.596111 
	C878.111755,51.870468 876.441528,49.277805 874.940857,49.218231 
	C865.032288,48.824871 855.100586,49.014980 845.193604,49.014980 
	C845.193604,97.046646 845.193604,144.382034 845.193604,191.650574 
	C853.778687,191.650574 861.903198,191.650574 870.432983,191.717926 
	C871.236755,190.639755 871.982483,189.494507 871.983398,188.348679 
	C872.008240,156.892578 871.957153,125.436401 872.280151,93.932297 
	C873.102600,94.318787 873.676025,94.680923 874.008667,95.197960 
	C891.816589,122.881828 910.132263,150.260361 927.120361,178.439194 
	C933.453125,188.943405 940.330017,194.498367 952.665710,192.082535 
	C956.320129,191.366882 960.098877,191.286758 964.114807,190.946136 
	C964.605957,190.984573 964.802979,190.992294 965.000000,191.000000 
M125.883568,50.507362 
	C125.938339,50.675243 125.993118,50.843128 125.960548,51.943459 
	C125.960548,65.345406 125.960548,78.747360 125.960548,92.213989 
	C151.825226,92.213989 176.926254,92.213989 202.876389,92.432419 
	C204.911499,92.369324 206.946594,92.306229 209.767334,92.368454 
	C210.255875,91.591591 210.744415,90.814728 211.653809,89.334694 
	C211.525253,76.207275 211.396698,63.079857 211.307907,49.428204 
	C211.239868,49.266701 211.171844,49.105202 210.883774,48.193436 
	C209.955627,47.937092 209.027817,47.458225 208.099289,47.456806 
	C181.948502,47.416836 155.797577,47.403969 129.647034,47.493851 
	C128.461807,47.497925 127.280014,48.501701 125.956100,49.509136 
	C125.956100,49.509136 126.018394,49.995026 125.883568,50.507362 
M89.103561,98.128654 
	C87.628723,97.746262 86.154808,97.034767 84.678902,97.030586 
	C60.592831,96.962234 36.506508,96.983345 12.420241,96.984253 
	C9.815721,96.984344 7.211200,96.984261 4.274472,96.984261 
	C4.274472,111.803093 4.274472,125.864830 4.098681,140.620941 
	C5.560273,141.039352 7.020797,141.818222 8.483618,141.822556 
	C33.769375,141.897446 59.055412,141.881470 84.341377,141.865891 
	C85.791122,141.864990 87.240768,141.696915 89.058723,141.583710 
	C89.058723,127.178925 89.058723,113.093643 89.103561,98.128654 
M36.892643,48.798592 
	C36.710026,49.069523 36.368839,49.339699 36.367546,49.611492 
	C36.304287,62.905994 36.178600,76.202171 36.401901,89.492416 
	C36.420349,90.590309 38.820065,92.577881 40.124561,92.587204 
	C66.218597,92.773766 92.314629,92.776192 118.408600,92.588036 
	C119.632370,92.579224 121.885338,90.468987 121.896835,89.319809 
	C122.028008,76.205093 121.816414,63.086960 121.748978,49.171543 
	C120.246162,48.781242 118.744286,48.054932 117.240387,48.050709 
	C92.017410,47.979858 66.794182,47.991611 41.571041,48.020100 
	C40.275082,48.021564 38.979473,48.338181 36.892643,48.798592 
M94.203079,97.158264 
	C93.840462,97.657043 93.163635,98.154221 93.161072,98.654839 
	C93.092949,111.986382 93.003090,125.319992 93.251633,138.647003 
	C93.272186,139.749115 95.658875,141.738663 96.957314,141.747864 
	C122.954292,141.932175 148.952988,141.853821 174.951065,141.928696 
	C178.024551,141.937546 178.998428,140.749435 178.973267,137.778503 
	C178.867462,125.280228 178.973770,112.780060 178.842712,100.282249 
	C178.831894,99.250076 177.623993,98.230453 176.054169,97.023857 
	C149.045013,97.078957 122.035858,97.134056 94.203079,97.158264 
M337.151794,49.163860 
	C336.706970,50.298229 335.874725,51.432053 335.873138,52.567047 
	C335.809601,97.803505 335.805573,143.040100 335.913483,188.276413 
	C335.916229,189.416550 337.259277,190.553482 338.877411,191.980515 
	C368.695526,192.003586 398.513855,191.977600 428.331451,192.114883 
	C431.866638,192.131149 433.008881,190.974136 432.872803,187.502518 
	C432.644592,181.681076 432.581451,175.831482 432.895111,170.017822 
	C433.115479,165.933380 431.917450,164.541870 427.641602,164.590149 
	C408.320160,164.808289 388.993347,164.557266 369.672180,164.787766 
	C365.207123,164.841034 364.067993,163.451416 364.095459,159.101456 
	C364.277649,130.283371 364.189880,101.463577 364.189575,72.644341 
	C364.189514,65.980934 364.139771,59.317005 364.212616,52.654408 
	C364.238464,50.290913 363.694427,48.837715 360.917145,48.911133 
	C353.272461,49.113235 345.624268,49.185371 337.151794,49.163860 
M614.772339,110.089363 
	C614.747803,93.314766 614.750427,76.540054 614.675354,59.765682 
	C614.660645,56.486450 614.344177,53.208565 613.718201,49.161072 
	C606.560242,49.088394 599.385254,49.289448 592.250366,48.845821 
	C587.572876,48.554989 586.363953,50.093128 586.381897,54.703594 
	C586.552246,98.532776 586.485718,142.362885 586.487305,186.192719 
	C586.487305,186.359375 586.508362,186.529022 586.484680,186.692230 
	C585.904053,190.692459 587.290955,192.397949 591.645813,192.143875 
	C597.791138,191.785324 603.973816,192.109253 610.138306,192.006378 
	C611.486694,191.983887 612.825500,191.392410 614.615051,190.337158 
	C614.719604,170.221298 614.824219,150.105423 615.584778,130.183029 
	C633.337463,149.781128 651.079834,169.388626 668.868347,188.954102 
	C669.941345,190.134262 671.365295,191.823517 672.654358,191.849304 
	C684.040833,192.076859 695.433716,191.981354 708.281860,191.981354 
	C685.458069,166.979279 663.604431,143.039902 641.771667,119.123459 
	C663.263000,95.705574 684.205322,72.885933 706.170776,48.951427 
	C694.384094,48.951427 684.285889,48.850388 674.194641,49.069477 
	C672.814209,49.099445 671.211548,50.488430 670.145813,51.647320 
	C657.089233,65.844818 644.168335,80.167229 631.090393,94.344917 
	C625.830261,100.047455 620.271667,105.474800 614.772339,110.089363 
M475.079254,189.528427 
	C490.638489,195.453918 506.647736,196.527802 522.603088,192.195358 
	C555.284363,183.321228 576.822266,156.267212 578.703918,125.445190 
	C580.108154,102.444923 572.733337,82.487816 555.911377,67.118744 
	C531.214294,44.554836 502.505859,40.269611 471.603699,52.775581 
	C438.530273,66.160278 419.666443,105.018288 429.391541,139.167465 
	C436.209412,163.108047 451.607178,179.510330 475.079254,189.528427 
M228.168671,61.517166 
	C228.166229,103.145882 228.250519,144.775024 228.043030,186.402725 
	C228.019180,191.187973 229.495636,192.210358 233.953766,192.150009 
	C251.268143,191.915619 268.587769,192.015274 285.905121,192.075531 
	C293.697693,192.102631 300.935852,190.344284 307.951691,186.845169 
	C336.102722,172.805023 337.983704,134.757217 313.501007,119.355682 
	C312.821442,118.928177 312.300354,118.248833 311.571716,117.560730 
	C318.776855,110.221550 323.239929,101.620018 323.810455,91.453087 
	C325.146332,67.646675 307.409515,49.235874 282.963379,48.965855 
	C268.478363,48.805859 253.990067,48.937298 239.503250,48.942989 
	C228.157333,48.947445 228.157333,48.951057 228.168671,61.517166 
M698.255066,93.753761 
	C690.539246,102.177910 682.823425,110.602066 675.157532,118.971680 
	C675.561157,119.704269 675.728210,120.199310 676.047424,120.559402 
	C695.691223,142.717438 715.407471,164.811813 734.940796,187.066711 
	C738.027344,190.583237 741.625366,191.694504 745.944824,191.689819 
	C753.274170,191.681870 760.646790,192.176346 767.920044,191.536957 
	C774.430237,190.964630 781.315002,190.256729 787.197083,187.689835 
	C813.941528,176.018692 829.830261,155.411911 832.293091,126.262047 
	C834.706665,97.694954 822.683533,75.166992 799.041199,59.096508 
	C790.612000,53.366947 781.310181,49.039875 770.923157,48.462337 
	C762.620117,48.000675 754.244629,47.993271 745.954773,48.562302 
	C742.650146,48.789131 738.636047,50.287773 736.403625,52.609848 
	C723.606262,65.920753 711.247375,79.653297 698.255066,93.753761 
M69.500061,145.681778 
	C58.577511,145.681778 47.654957,145.681778 36.236053,145.681778 
	C36.236053,160.161179 36.150017,173.939377 36.412300,187.710938 
	C36.431633,188.725998 38.955944,190.547058 40.325375,190.556290 
	C66.124504,190.730377 91.925217,190.651047 117.725227,190.736023 
	C120.923805,190.746567 122.179810,189.717346 122.110008,186.411255 
	C121.937874,178.258621 122.050102,170.099991 122.048836,161.943771 
	C122.048019,156.678833 122.048676,151.413910 122.048676,145.681503 
	C104.388199,145.681503 87.444138,145.681503 69.500061,145.681778 
M177.500092,145.462097 
	C160.407074,145.462097 143.314041,145.462097 126.298248,145.462097 
	C126.298248,160.889206 126.298248,175.603149 126.298248,190.157928 
	C127.032593,190.429718 127.337280,190.640915 127.642288,190.641388 
	C154.457062,190.683624 181.271988,190.677902 208.086517,190.775497 
	C211.581894,190.788223 211.674423,188.726807 211.664581,186.194138 
	C211.627045,176.533569 211.649475,166.872757 211.649506,157.212036 
	C211.649521,153.453629 211.649521,149.695236 211.649521,145.462723 
	C200.085617,145.462723 189.292877,145.462723 177.500092,145.462097 
z"/>
<path fill="#EBF3D6" opacity="1.000000" stroke="none" 
	d="
M965.000000,190.531342 
	C964.802979,190.992294 964.605957,190.984573 964.065063,190.485779 
	C963.758057,143.356079 963.794983,96.717468 963.831909,50.078869 
	C964.026062,50.058563 964.220276,50.038254 964.707275,50.008972 
	C965.000000,96.687561 965.000000,143.375122 965.000000,190.531342 
z"/>
<path fill="#96C222" opacity="1.000000" stroke="none" 
	d="
M963.504395,49.821938 
	C963.794983,96.717468 963.758057,143.356079 963.770874,190.455048 
	C960.098877,191.286758 956.320129,191.366882 952.665710,192.082535 
	C940.330017,194.498367 933.453125,188.943405 927.120361,178.439194 
	C910.132263,150.260361 891.816589,122.881828 874.008667,95.197960 
	C873.676025,94.680923 873.102600,94.318787 871.892334,94.041351 
	C870.761414,95.710861 870.049255,97.222794 870.046631,98.735985 
	C869.991699,129.707428 870.017761,160.679016 870.027771,191.650574 
	C861.903198,191.650574 853.778687,191.650574 845.193604,191.650574 
	C845.193604,144.382034 845.193604,97.046646 845.193604,49.014980 
	C855.100586,49.014980 865.032288,48.824871 874.940857,49.218231 
	C876.441528,49.277805 878.111755,51.870468 879.235901,53.596111 
	C897.292969,81.315041 915.272705,109.084351 933.278259,136.836838 
	C933.879700,137.763855 934.567749,138.634598 935.943604,140.539948 
	C936.093994,137.875214 936.256104,136.331833 936.257019,134.788361 
	C936.272217,108.140625 936.397034,81.491684 936.150940,54.846222 
	C936.105225,49.901390 937.634338,48.540913 942.342285,48.893227 
	C949.265076,49.411282 956.229919,49.368732 963.504395,49.821938 
z"/>
<path fill="#0B4E7C" opacity="1.000000" stroke="none" 
	d="
M474.729858,189.359650 
	C451.607178,179.510330 436.209412,163.108047 429.391541,139.167465 
	C419.666443,105.018288 438.530273,66.160278 471.603699,52.775581 
	C502.505859,40.269611 531.214294,44.554836 555.911377,67.118744 
	C572.733337,82.487816 580.108154,102.444923 578.703918,125.445190 
	C576.822266,156.267212 555.284363,183.321228 522.603088,192.195358 
	C506.647736,196.527802 490.638489,195.453918 474.729858,189.359650 
M477.110352,80.481148 
	C449.464783,99.980347 447.382385,136.088348 473.104370,157.141159 
	C487.864868,169.222275 504.770172,171.643845 522.223938,163.801926 
	C538.935852,156.293304 548.991821,142.822876 550.575012,124.533394 
	C552.234497,105.363457 544.173584,90.129395 527.731628,79.987778 
	C511.209534,69.796745 494.391174,70.413902 477.110352,80.481148 
z"/>
<path fill="#0C4F7D" opacity="1.000000" stroke="none" 
	d="
M228.168335,61.021900 
	C228.157333,48.951057 228.157333,48.947445 239.503250,48.942989 
	C253.990067,48.937298 268.478363,48.805859 282.963379,48.965855 
	C307.409515,49.235874 325.146332,67.646675 323.810455,91.453087 
	C323.239929,101.620018 318.776855,110.221550 311.571716,117.560730 
	C312.300354,118.248833 312.821442,118.928177 313.501007,119.355682 
	C337.983704,134.757217 336.102722,172.805023 307.951691,186.845169 
	C300.935852,190.344284 293.697693,192.102631 285.905121,192.075531 
	C268.587769,192.015274 251.268143,191.915619 233.953766,192.150009 
	C229.495636,192.210358 228.019180,191.187973 228.043030,186.402725 
	C228.250519,144.775024 228.166229,103.145882 228.168335,61.021900 
M257.290283,169.160843 
	C265.224457,169.368332 273.158417,169.588028 281.093719,169.733459 
	C281.376099,169.738632 281.671967,169.008835 282.663635,168.221786 
	C283.942139,167.864578 285.217834,167.496979 286.499573,167.151810 
	C296.758301,164.389130 301.907349,157.361740 301.178070,147.111603 
	C300.549957,138.283676 292.961456,130.494003 283.439026,129.858459 
	C275.527649,129.330414 267.551941,129.619141 259.612701,129.836792 
	C258.587616,129.864883 256.749603,131.630493 256.741821,132.602890 
	C256.646118,144.562897 256.821289,156.525085 257.290283,169.160843 
M256.598755,74.657196 
	C256.598755,85.946136 256.598755,97.235077 256.598755,108.826019 
	C264.370605,108.826019 271.731445,109.554230 278.887207,108.653488 
	C289.338654,107.337921 295.493683,100.608498 296.110413,91.588455 
	C296.747894,82.264908 291.201752,73.823845 281.385529,71.723969 
	C274.163544,70.179054 266.513550,70.537804 259.047180,70.374687 
	C258.255951,70.357407 257.416687,72.537247 256.598755,74.657196 
M284.588501,169.528366 
	C284.588501,169.528366 284.477051,169.592102 284.588501,169.528366 
z"/>
<path fill="#96C222" opacity="1.000000" stroke="none" 
	d="
M698.497375,93.498260 
	C711.247375,79.653297 723.606262,65.920753 736.403625,52.609848 
	C738.636047,50.287773 742.650146,48.789131 745.954773,48.562302 
	C754.244629,47.993271 762.620117,48.000675 770.923157,48.462337 
	C781.310181,49.039875 790.612000,53.366947 799.041199,59.096508 
	C822.683533,75.166992 834.706665,97.694954 832.293091,126.262047 
	C829.830261,155.411911 813.941528,176.018692 787.197083,187.689835 
	C781.315002,190.256729 774.430237,190.964630 767.920044,191.536957 
	C760.646790,192.176346 753.274170,191.681870 745.944824,191.689819 
	C741.625366,191.694504 738.027344,190.583237 734.940796,187.066711 
	C715.407471,164.811813 695.691223,142.717438 676.047424,120.559402 
	C675.728210,120.199310 675.561157,119.704269 675.157532,118.971680 
	C682.823425,110.602066 690.539246,102.177910 698.497375,93.498260 
M759.362427,73.216949 
	C755.820984,74.263000 751.186584,74.233482 748.921387,76.535400 
	C737.139221,88.508499 725.920776,101.039230 714.596863,113.458633 
	C711.345581,117.024467 711.120422,120.932205 714.508240,124.632271 
	C726.760925,138.014404 738.987061,151.422485 751.419678,164.635925 
	C752.815247,166.119202 755.444946,167.120575 757.531799,167.172897 
	C792.047791,168.038208 815.723755,129.934784 799.634277,99.337097 
	C791.333252,83.550735 777.885315,75.108658 759.362427,73.216949 
z"/>
<path fill="#0B4E7C" opacity="1.000000" stroke="none" 
	d="
M614.168762,191.062988 
	C612.825500,191.392410 611.486694,191.983887 610.138306,192.006378 
	C603.973816,192.109253 597.791138,191.785324 591.645813,192.143875 
	C587.290955,192.397949 585.904053,190.692459 586.484680,186.692230 
	C586.508362,186.529022 586.487305,186.359375 586.487305,186.192719 
	C586.485718,142.362885 586.552246,98.532776 586.381897,54.703594 
	C586.363953,50.093128 587.572876,48.554989 592.250366,48.845821 
	C599.385254,49.289448 606.560242,49.088394 613.614624,49.822830 
	C613.375977,50.784637 613.123535,51.084354 613.122681,51.384773 
	C613.068481,70.265259 613.006470,89.145912 613.078369,108.026062 
	C613.082214,109.028740 614.232361,110.027061 614.848938,111.027405 
	C620.271667,105.474800 625.830261,100.047455 631.090393,94.344917 
	C644.168335,80.167229 657.089233,65.844818 670.145813,51.647320 
	C671.211548,50.488430 672.814209,49.099445 674.194641,49.069477 
	C684.285889,48.850388 694.384094,48.951427 706.170776,48.951427 
	C684.205322,72.885933 663.263000,95.705574 641.771667,119.123459 
	C663.604431,143.039902 685.458069,166.979279 708.281860,191.981354 
	C695.433716,191.981354 684.040833,192.076859 672.654358,191.849304 
	C671.365295,191.823517 669.941345,190.134262 668.868347,188.954102 
	C651.079834,169.388626 633.337463,149.781128 614.872925,130.205627 
	C613.772644,131.560303 613.051941,132.890976 613.046204,134.224701 
	C612.970459,151.812866 612.969421,169.401581 613.045715,186.989746 
	C613.051575,188.349075 613.777527,189.705307 614.168762,191.062988 
M589.002441,156.500000 
	C589.002441,121.441345 589.002441,86.382683 589.002441,51.324028 
	C588.768250,51.325809 588.534119,51.327587 588.299927,51.329369 
	C588.299927,97.510002 588.299927,143.690643 588.299927,189.871277 
	C588.534119,189.872574 588.768250,189.873871 589.002441,189.875168 
	C589.002441,179.083450 589.002441,168.291718 589.002441,156.500000 
z"/>
<path fill="#0B4E7C" opacity="1.000000" stroke="none" 
	d="
M337.977478,49.308926 
	C345.624268,49.185371 353.272461,49.113235 360.917145,48.911133 
	C363.694427,48.837715 364.238464,50.290913 364.212616,52.654408 
	C364.139771,59.317005 364.189514,65.980934 364.189575,72.644341 
	C364.189880,101.463577 364.277649,130.283371 364.095459,159.101456 
	C364.067993,163.451416 365.207123,164.841034 369.672180,164.787766 
	C388.993347,164.557266 408.320160,164.808289 427.641602,164.590149 
	C431.917450,164.541870 433.115479,165.933380 432.895111,170.017822 
	C432.581451,175.831482 432.644592,181.681076 432.872803,187.502518 
	C433.008881,190.974136 431.866638,192.131149 428.331451,192.114883 
	C398.513855,191.977600 368.695526,192.003586 338.428101,191.388611 
	C337.978363,143.634109 337.977905,96.471512 337.977478,49.308926 
z"/>
<path fill="#727172" opacity="1.000000" stroke="none" 
	d="
M70.000061,145.681641 
	C87.444138,145.681503 104.388199,145.681503 122.048676,145.681503 
	C122.048676,151.413910 122.048019,156.678833 122.048836,161.943771 
	C122.050102,170.099991 121.937874,178.258621 122.110008,186.411255 
	C122.179810,189.717346 120.923805,190.746567 117.725227,190.736023 
	C91.925217,190.651047 66.124504,190.730377 40.325375,190.556290 
	C38.955944,190.547058 36.431633,188.725998 36.412300,187.710938 
	C36.150017,173.939377 36.236053,160.161179 36.236053,145.681778 
	C47.654957,145.681778 58.577511,145.681778 70.000061,145.681641 
z"/>
<path fill="#727172" opacity="1.000000" stroke="none" 
	d="
M176.972290,97.204987 
	C177.623993,98.230453 178.831894,99.250076 178.842712,100.282249 
	C178.973770,112.780060 178.867462,125.280228 178.973267,137.778503 
	C178.998428,140.749435 178.024551,141.937546 174.951065,141.928696 
	C148.952988,141.853821 122.954292,141.932175 96.957314,141.747864 
	C95.658875,141.738663 93.272186,139.749115 93.251633,138.647003 
	C93.003090,125.319992 93.092949,111.986382 93.161072,98.654839 
	C93.163635,98.154221 93.840462,97.657043 94.719582,97.554459 
	C96.260864,98.300949 97.284943,98.954781 98.310516,98.957115 
	C123.361870,99.014206 148.413467,99.026237 173.464554,98.925957 
	C174.636078,98.921257 175.803146,97.804062 176.972290,97.204987 
z"/>
<path fill="#737172" opacity="1.000000" stroke="none" 
	d="
M121.696335,49.969734 
	C121.816414,63.086960 122.028008,76.205093 121.896835,89.319809 
	C121.885338,90.468987 119.632370,92.579224 118.408600,92.588036 
	C92.314629,92.776192 66.218597,92.773766 40.124561,92.587204 
	C38.820065,92.577881 36.420349,90.590309 36.401901,89.492416 
	C36.178600,76.202171 36.304287,62.905994 36.367546,49.611492 
	C36.368839,49.339699 36.710026,49.069523 37.568268,49.024151 
	C39.677608,49.500919 41.111061,49.969345 42.545090,49.971130 
	C68.928795,50.003941 95.312576,49.980934 121.696335,49.969734 
z"/>
<path fill="#727071" opacity="1.000000" stroke="none" 
	d="
M89.058723,99.008362 
	C89.058723,113.093643 89.058723,127.178925 89.058723,141.583710 
	C87.240768,141.696915 85.791122,141.864990 84.341377,141.865891 
	C59.055412,141.881470 33.769375,141.897446 8.483618,141.822556 
	C7.020797,141.818222 5.560273,141.039352 4.612368,140.118408 
	C5.417454,137.869659 5.946758,136.125351 5.960947,134.376862 
	C6.042068,124.380341 6.247998,114.373970 5.890388,104.389610 
	C5.726056,99.801498 7.321530,98.878448 11.581307,98.909409 
	C37.405991,99.097092 63.232693,99.006187 89.058723,99.008362 
z"/>
<path fill="#706E6F" opacity="1.000000" stroke="none" 
	d="
M208.981689,92.243134 
	C206.946594,92.306229 204.911499,92.369324 202.370239,91.907509 
	C200.070084,90.922379 198.277634,90.068817 196.481812,90.061646 
	C173.761856,89.970863 151.041397,90.001953 128.007950,90.001953 
	C128.007950,77.703171 128.077393,65.582176 127.959961,53.462990 
	C127.929977,50.369080 129.478241,49.970360 131.997864,49.975330 
	C156.284729,50.023254 180.571976,50.057732 204.858383,49.941654 
	C208.223373,49.925575 209.090759,51.153545 209.055161,54.316246 
	C208.912903,66.957222 208.987396,79.600624 208.981689,92.243134 
z"/>
<path fill="#797878" opacity="1.000000" stroke="none" 
	d="
M178.000107,145.462402 
	C189.292877,145.462723 200.085617,145.462723 211.649521,145.462723 
	C211.649521,149.695236 211.649521,153.453629 211.649506,157.212036 
	C211.649475,166.872757 211.627045,176.533569 211.664581,186.194138 
	C211.674423,188.726807 211.581894,190.788223 208.086517,190.775497 
	C181.271988,190.677902 154.457062,190.683624 127.642288,190.641388 
	C127.337280,190.640915 127.032593,190.429718 126.298248,190.157928 
	C126.298248,175.603149 126.298248,160.889206 126.298248,145.462097 
	C143.314041,145.462097 160.407074,145.462097 178.000107,145.462402 
M158.500000,188.012817 
	C173.813309,188.012405 189.126816,187.972046 204.439743,188.047287 
	C207.295975,188.061310 209.145691,187.797897 209.079529,184.114990 
	C208.885239,173.299286 208.944153,162.477173 209.053802,151.659103 
	C209.082870,148.791611 207.950577,147.943390 205.213684,147.950958 
	C180.745865,148.018585 156.277588,148.035629 131.809998,147.935562 
	C128.591492,147.922409 127.913841,149.282928 127.942772,152.133087 
	C128.050919,162.784729 128.075287,173.439331 127.931572,184.090118 
	C127.889503,187.207626 129.070969,188.108154 132.034088,188.059952 
	C140.520737,187.921829 149.011093,188.012238 158.500000,188.012817 
z"/>
<path fill="#686768" opacity="1.000000" stroke="none" 
	d="
M209.374512,92.305794 
	C208.987396,79.600624 208.912903,66.957222 209.055161,54.316246 
	C209.090759,51.153545 208.223373,49.925575 204.858383,49.941654 
	C180.571976,50.057732 156.284729,50.023254 131.997864,49.975330 
	C129.478241,49.970360 127.929977,50.369080 127.959961,53.462990 
	C128.077393,65.582176 128.007950,77.703171 128.007950,90.001953 
	C151.041397,90.001953 173.761856,89.970863 196.481812,90.061646 
	C198.277634,90.068817 200.070084,90.922379 201.945679,91.798294 
	C176.926254,92.213989 151.825226,92.213989 125.960548,92.213989 
	C125.960548,78.747360 125.960548,65.345406 126.164276,51.385818 
	C126.251465,50.550465 126.134926,50.272747 126.018387,49.995026 
	C126.018394,49.995026 125.956100,49.509136 126.487427,49.248062 
	C155.047104,48.972553 183.075455,48.958126 211.103821,48.943699 
	C211.171844,49.105202 211.239868,49.266701 210.957245,49.961033 
	C210.462372,63.146614 210.305252,75.799286 210.219543,88.452423 
	C210.215988,88.978592 210.879959,89.509277 211.232941,90.037872 
	C210.744415,90.814728 210.255875,91.591591 209.374512,92.305794 
z"/>
<path fill="#003E70" opacity="1.000000" stroke="none" 
	d="
M337.564636,49.236393 
	C337.977905,96.471512 337.978363,143.634109 337.978027,191.244293 
	C337.259277,190.553482 335.916229,189.416550 335.913483,188.276413 
	C335.805573,143.040100 335.809601,97.803505 335.873138,52.567047 
	C335.874725,51.432053 336.706970,50.298229 337.564636,49.236393 
z"/>
<path fill="#646263" opacity="1.000000" stroke="none" 
	d="
M89.081146,98.568512 
	C63.232693,99.006187 37.405991,99.097092 11.581307,98.909409 
	C7.321530,98.878448 5.726056,99.801498 5.890388,104.389610 
	C6.247998,114.373970 6.042068,124.380341 5.960947,134.376862 
	C5.946758,136.125351 5.417454,137.869659 4.700263,139.771225 
	C4.274472,125.864830 4.274472,111.803093 4.274472,96.984261 
	C7.211200,96.984261 9.815721,96.984344 12.420241,96.984253 
	C36.506508,96.983345 60.592831,96.962234 84.678902,97.030586 
	C86.154808,97.034767 87.628723,97.746262 89.081146,98.568512 
z"/>
<path fill="#8DBC0D" opacity="1.000000" stroke="none" 
	d="
M870.432983,191.717926 
	C870.017761,160.679016 869.991699,129.707428 870.046631,98.735985 
	C870.049255,97.222794 870.761414,95.710861 871.531006,94.089294 
	C871.957153,125.436401 872.008240,156.892578 871.983398,188.348679 
	C871.982483,189.494507 871.236755,190.639755 870.432983,191.717926 
z"/>
<path fill="#909090" opacity="1.000000" stroke="none" 
	d="
M210.993805,48.568565 
	C183.075455,48.958126 155.047104,48.972553 126.557678,49.013420 
	C127.280014,48.501701 128.461807,47.497925 129.647034,47.493851 
	C155.797577,47.403969 181.948502,47.416836 208.099289,47.456806 
	C209.027817,47.458225 209.955627,47.937092 210.993805,48.568565 
z"/>
<path fill="#646263" opacity="1.000000" stroke="none" 
	d="
M121.722656,49.570641 
	C95.312576,49.980934 68.928795,50.003941 42.545090,49.971130 
	C41.111061,49.969345 39.677608,49.500919 37.963795,48.878887 
	C38.979473,48.338181 40.275082,48.021564 41.571041,48.020100 
	C66.794182,47.991611 92.017410,47.979858 117.240387,48.050709 
	C118.744286,48.054932 120.246162,48.781242 121.722656,49.570641 
z"/>
<path fill="#646263" opacity="1.000000" stroke="none" 
	d="
M176.513229,97.114426 
	C175.803146,97.804062 174.636078,98.921257 173.464554,98.925957 
	C148.413467,99.026237 123.361870,99.014206 98.310516,98.957115 
	C97.284943,98.954781 96.260864,98.300949 95.131393,97.569901 
	C122.035858,97.134056 149.045013,97.078957 176.513229,97.114426 
z"/>
<path fill="#00386B" opacity="1.000000" stroke="none" 
	d="
M614.391907,190.700073 
	C613.777527,189.705307 613.051575,188.349075 613.045715,186.989746 
	C612.969421,169.401581 612.970459,151.812866 613.046204,134.224701 
	C613.051941,132.890976 613.772644,131.560303 614.544922,130.108887 
	C614.824219,150.105423 614.719604,170.221298 614.391907,190.700073 
z"/>
<path fill="#00386B" opacity="1.000000" stroke="none" 
	d="
M614.810669,110.558388 
	C614.232361,110.027061 613.082214,109.028740 613.078369,108.026062 
	C613.006470,89.145912 613.068481,70.265259 613.122681,51.384773 
	C613.123535,51.084354 613.375977,50.784637 613.838989,50.207321 
	C614.344177,53.208565 614.660645,56.486450 614.675354,59.765682 
	C614.750427,76.540054 614.747803,93.314766 614.810669,110.558388 
z"/>
<path fill="#909090" opacity="1.000000" stroke="none" 
	d="
M211.443375,89.686279 
	C210.879959,89.509277 210.215988,88.978592 210.219543,88.452423 
	C210.305252,75.799286 210.462372,63.146614 210.937347,50.223152 
	C211.396698,63.079857 211.525253,76.207275 211.443375,89.686279 
z"/>
<path fill="#909090" opacity="1.000000" stroke="none" 
	d="
M125.950974,50.251198 
	C126.134926,50.272747 126.251465,50.550465 126.207947,50.919594 
	C125.993118,50.843128 125.938339,50.675243 125.950974,50.251198 
z"/>
<path fill="#FCFDFE" opacity="1.000000" stroke="none" 
	d="
M477.437164,80.311028 
	C494.391174,70.413902 511.209534,69.796745 527.731628,79.987778 
	C544.173584,90.129395 552.234497,105.363457 550.575012,124.533394 
	C548.991821,142.822876 538.935852,156.293304 522.223938,163.801926 
	C504.770172,171.643845 487.864868,169.222275 473.104370,157.141159 
	C447.382385,136.088348 449.464783,99.980347 477.437164,80.311028 
z"/>
<path fill="#FBFCFD" opacity="1.000000" stroke="none" 
	d="
M256.926483,168.486710 
	C256.821289,156.525085 256.646118,144.562897 256.741821,132.602890 
	C256.749603,131.630493 258.587616,129.864883 259.612701,129.836792 
	C267.551941,129.619141 275.527649,129.330414 283.439026,129.858459 
	C292.961456,130.494003 300.549957,138.283676 301.178070,147.111603 
	C301.907349,157.361740 296.758301,164.389130 286.499573,167.151810 
	C285.217834,167.496979 283.942139,167.864578 281.853394,168.342407 
	C273.004272,168.470917 264.965363,168.478821 256.926483,168.486710 
z"/>
<path fill="#FAFCFC" opacity="1.000000" stroke="none" 
	d="
M256.599243,74.177498 
	C257.416687,72.537247 258.255951,70.357407 259.047180,70.374687 
	C266.513550,70.537804 274.163544,70.179054 281.385529,71.723969 
	C291.201752,73.823845 296.747894,82.264908 296.110413,91.588455 
	C295.493683,100.608498 289.338654,107.337921 278.887207,108.653488 
	C271.731445,109.554230 264.370605,108.826019 256.598755,108.826019 
	C256.598755,97.235077 256.598755,85.946136 256.599243,74.177498 
z"/>
<path fill="#003B6F" opacity="1.000000" stroke="none" 
	d="
M257.108398,168.823776 
	C264.965363,168.478821 273.004272,168.470917 281.502319,168.542297 
	C281.671967,169.008835 281.376099,169.738632 281.093719,169.733459 
	C273.158417,169.588028 265.224457,169.368332 257.108398,168.823776 
z"/>
<path fill="#003B6F" opacity="1.000000" stroke="none" 
	d="
M284.532776,169.560242 
	C284.477051,169.592102 284.588501,169.528366 284.532776,169.560242 
z"/>
<path fill="#FEFEFC" opacity="1.000000" stroke="none" 
	d="
M759.794434,73.226730 
	C777.885315,75.108658 791.333252,83.550735 799.634277,99.337097 
	C815.723755,129.934784 792.047791,168.038208 757.531799,167.172897 
	C755.444946,167.120575 752.815247,166.119202 751.419678,164.635925 
	C738.987061,151.422485 726.760925,138.014404 714.508240,124.632271 
	C711.120422,120.932205 711.345581,117.024467 714.596863,113.458633 
	C725.920776,101.039230 737.139221,88.508499 748.921387,76.535400 
	C751.186584,74.233482 755.820984,74.263000 759.794434,73.226730 
z"/>
<path fill="#004173" opacity="1.000000" stroke="none" 
	d="
M589.002441,157.000000 
	C589.002441,168.291718 589.002441,179.083450 589.002441,189.875168 
	C588.768250,189.873871 588.534119,189.872574 588.299927,189.871277 
	C588.299927,143.690643 588.299927,97.510002 588.299927,51.329369 
	C588.534119,51.327587 588.768250,51.325809 589.002441,51.324028 
	C589.002441,86.382683 589.002441,121.441345 589.002441,157.000000 
z"/>
<path fill="#706E6F" opacity="1.000000" stroke="none" 
	d="
M158.000000,188.012817 
	C149.011093,188.012238 140.520737,187.921829 132.034088,188.059952 
	C129.070969,188.108154 127.889503,187.207626 127.931572,184.090118 
	C128.075287,173.439331 128.050919,162.784729 127.942772,152.133087 
	C127.913841,149.282928 128.591492,147.922409 131.809998,147.935562 
	C156.277588,148.035629 180.745865,148.018585 205.213684,147.950958 
	C207.950577,147.943390 209.082870,148.791611 209.053802,151.659103 
	C208.944153,162.477173 208.885239,173.299286 209.079529,184.114990 
	C209.145691,187.797897 207.295975,188.061310 204.439743,188.047287 
	C189.126816,187.972046 173.813309,188.012405 158.000000,188.012817 
z"/>
</svg>