<?xml version="1.0" encoding="UTF-8"?>
<svg version="1.1" xmlns="http://www.w3.org/2000/svg" width="1594" height="524">
<path d="M0 0 C30.48375 -0.061875 60.9675 -0.12375 92.375 -0.1875 C101.97384277 -0.21481201 111.57268555 -0.24212402 121.46240234 -0.27026367 C133.2512207 -0.28381348 133.2512207 -0.28381348 138.78311157 -0.28633118 C142.61820767 -0.28910803 146.45317715 -0.3002776 150.28823853 -0.31672668 C155.20101695 -0.33751461 160.11361491 -0.34343505 165.02643323 -0.33921683 C166.81635276 -0.34009709 168.6062795 -0.34592008 170.39616084 -0.35764539 C200.10159922 -0.54298533 225.23422013 6.8739625 247 28 C262.76325337 44.72150585 270.44918002 65.35022116 270.3125 88.1875 C270.30686035 89.1878125 270.3012207 90.188125 270.29541016 91.21875 C269.92403079 114.1339602 261.88803279 136.17737704 246 153 C243.44474283 155.19506338 240.82905308 157.17306382 238 159 C240.91982306 161.44888386 243.89349753 163.56094102 247.125 165.5625 C267.59267842 179.20761894 278.99143977 202.5459357 284 226 C288.76815096 251.15279634 285.24259235 278.11920202 271.2421875 299.7109375 C269.58452676 301.90830173 267.83870905 303.95261519 266 306 C265.34644531 306.7940625 264.69289063 307.588125 264.01953125 308.40625 C251.30588937 323.41251583 234.12460904 333.50271126 215 338 C214.32954745 338.16716963 213.65909491 338.33433926 212.96832561 338.50657463 C203.39169207 340.58995234 193.76986815 340.26540103 184.0246582 340.22705078 C181.98080802 340.22643733 179.93695741 340.22670643 177.89310741 340.2277813 C172.44471076 340.2282308 166.99640285 340.21668153 161.54802704 340.20256042 C156.42601762 340.19112799 151.30402923 340.19063187 146.18200684 340.18920898 C131.22549291 340.17873533 116.26899532 340.15081286 101.3125 340.125 C51.1628125 340.063125 51.1628125 340.063125 0 340 C0 227.8 0 115.6 0 0 Z M92 86 C92 99.2 92 112.4 92 126 C103.35738245 126.11647673 103.35738245 126.11647673 114.71484375 126.1953125 C119.35191311 126.21916052 123.98866447 126.2472748 128.62548828 126.30175781 C132.36674468 126.34543929 136.10765974 126.36918367 139.84915161 126.37950897 C141.27163053 126.38686064 142.69409223 126.40121638 144.11642456 126.42292023 C153.24676187 126.55661498 159.78304555 126.32060513 167.0234375 120.32421875 C171.29596345 115.15026391 173.29642327 110.45459223 173 103.625 C172.20495383 98.27899989 169.83002659 93.80095618 166 90 C158.6093021 85.1078861 151.3310355 85.48094709 142.78125 85.609375 C141.31295547 85.6168473 139.84465089 85.62253555 138.37634277 85.62652588 C134.53580569 85.64170471 130.69588609 85.68091756 126.85559082 85.7253418 C122.23502358 85.77370966 117.61424838 85.79186558 112.99349976 85.81515503 C105.99523874 85.85377531 98.99832913 85.93048017 92 86 Z M92 207 C92 222.84 92 238.68 92 255 C105.26363815 255.11649377 105.26363815 255.11649377 118.52734375 255.1953125 C123.94335763 255.21915199 129.35909901 255.24724372 134.77490234 255.30175781 C139.14509681 255.34546789 143.51499873 255.36918982 147.88539505 255.37950897 C149.54624659 255.38685547 151.20708353 255.40120073 152.8678093 255.42292023 C162.89150424 255.5487069 172.11323294 255.55626198 180.40234375 249.140625 C185.63773601 242.69296634 188.69359308 236.76208673 188.34375 228.29296875 C187.30892914 221.39024326 183.92162202 216.36695283 179.07421875 211.5078125 C173.65850162 207.57096351 168.63341758 206.55851402 162.04516602 206.65942383 C161.28336533 206.65898575 160.52156464 206.65854767 159.73667908 206.65809631 C157.24215215 206.66017071 154.74831439 206.68343689 152.25390625 206.70703125 C150.51513537 206.71263202 148.77635972 206.71689985 147.0375824 206.71989441 C142.4787572 206.7313053 137.92022234 206.76073983 133.36151123 206.79400635 C127.88237762 206.83020813 122.40314649 206.84388629 116.92392731 206.86136627 C108.6157501 206.8903797 100.30820896 206.94789277 92 207 Z " fill="#187E96" transform="translate(697,169)"/>
<path d="M0 0 C75.9 0 151.8 0 230 0 C230 29.7 230 59.4 230 90 C185.12 90 140.24 90 94 90 C94 101.55 94 113.1 94 125 C133.93 125 173.86 125 215 125 C215 154.37 215 183.74 215 214 C175.07 214 135.14 214 94 214 C94 226.21 94 238.42 94 251 C139.87 251 185.74 251 233 251 C233 280.37 233 309.74 233 340 C171.15462691 342.38109096 116.94018376 339.84815379 57.68408203 321.625 C46.54410931 318.20057897 35.2770474 315.33745029 23.97409058 312.50085449 C19.45370497 311.35961425 14.94495095 310.1755152 10.4375 308.984375 C9.71078598 308.7937146 8.98407196 308.6030542 8.2353363 308.40661621 C5.45890042 307.67416718 2.72510124 306.90836708 0 306 C0 205.02 0 104.04 0 0 Z " fill="#187E96" transform="translate(423,169)"/>
<path d="M0 0 C1.22589844 1.02867187 1.22589844 1.02867187 2.4765625 2.078125 C20.87578234 17.91398604 32.97350968 38.78807747 36 63 C36 67.95 36 72.9 36 78 C3.99 78 -28.02 78 -61 78 C-61.99 74.7 -62.98 71.4 -64 68 C-67.44843605 62.25260659 -73.04891177 59.01069489 -79.2734375 56.87890625 C-90.44177488 54.24486441 -101.00582035 55.30049272 -110.8671875 61.09765625 C-114.55063428 63.69721797 -116.15620774 66.50692813 -116.9375 70.8203125 C-117.0764205 75.66516495 -115.63557016 79.74843589 -112.796875 83.65625 C-101.19660231 95.13441455 -79.98119499 98.55456787 -64.8359375 102.68359375 C-35.89626902 110.5937698 -7.89090483 120.89023314 15 141 C15.59683594 141.50273437 16.19367188 142.00546875 16.80859375 142.5234375 C27.43328014 152.191166 33.9582132 165.44079234 38 179 C38.33902344 180.09699219 38.67804688 181.19398438 39.02734375 182.32421875 C45.73186534 208.92603022 41.3936056 239.22342509 28.2734375 263.1484375 C10.95267885 291.38364681 -17.11496248 310.66345126 -49.11230469 318.51855469 C-58.73499824 320.72309242 -68.33569708 322.14174344 -78.20703125 322.203125 C-78.96578552 322.21018463 -79.72453979 322.21724426 -80.50628662 322.22451782 C-112.3923652 322.45388769 -112.3923652 322.45388769 -126 319 C-126.80066895 318.80132324 -127.60133789 318.60264648 -128.42626953 318.39794922 C-160.68322268 310.14041663 -189.31989128 291.43134898 -206.89453125 262.66796875 C-216.49294778 246.32775582 -220 228.7934297 -220 210 C-187.66 210 -155.32 210 -122 210 C-121.34 213.3 -120.68 216.6 -120 220 C-114.84478695 228.76386218 -107.73272143 233.18536619 -98 235.875 C-86.61059909 238.31558591 -75.12137815 237.46575604 -65 231.25 C-60.91568955 228.22761027 -58.78587806 225.78940024 -57 221 C-56.52869988 216.26175058 -57.34784101 212.2969746 -60.1875 208.4375 C-72.51135401 195.96967574 -91.22438028 192.5420447 -107.5234375 188.2890625 C-142.92973413 179.05024426 -182.42084924 164.23496974 -202.15478516 131.05859375 C-216.555924 105.2715348 -218.83800131 75.36163517 -210.93359375 47.078125 C-203.20828902 21.23221985 -184.48503449 -0.38886932 -160.94140625 -13.29296875 C-157.0259365 -15.34234028 -153.04083687 -17.21228058 -149 -19 C-147.91074219 -19.48210937 -146.82148437 -19.96421875 -145.69921875 -20.4609375 C-99.86955762 -39.29504481 -37.75694042 -33.24672569 0 0 Z " fill="#187E96" transform="translate(1553,193)"/>
<path d="M0 0 C2.77863885 1.52697306 5.51427779 3.08288082 8.2199707 4.73681641 C9.33307617 5.41486328 10.44618164 6.09291016 11.59301758 6.79150391 C12.79815358 7.53099292 14.00323012 8.27057886 15.20825195 9.01025391 C16.46653608 9.7787769 17.72500254 10.54700144 18.98364258 11.31494141 C28.24470054 16.97043488 37.48337955 22.66257617 46.7199707 28.35791016 C54.69708355 33.27358866 62.69658651 38.15119823 70.70825195 43.01025391 C71.2917038 43.36416199 71.87515564 43.71807007 72.47628784 44.08270264 C75.36749421 45.83629711 78.25897829 47.58943303 81.15063477 49.34228516 C86.46292981 52.56260426 91.77409741 55.7847598 97.08325195 59.01025391 C98.42842896 59.82550537 98.42842896 59.82550537 99.80078125 60.65722656 C101.51275294 61.69775797 103.22049134 62.74529149 104.92358398 63.80029297 C106.75437951 64.91756356 108.60676434 65.9998288 110.47338867 67.05615234 C111.93349365 67.91128418 111.93349365 67.91128418 113.4230957 68.78369141 C114.30344482 69.28304199 115.18379395 69.78239258 116.09082031 70.296875 C122.00685067 75.38134437 123.97015238 84.01542242 126.4777832 91.16650391 C126.85374634 92.22480408 127.22970947 93.28310425 127.61706543 94.37347412 C128.86034082 97.87580708 130.09668156 101.38054864 131.33325195 104.88525391 C132.89073796 109.27806749 134.45078888 113.66996893 136.01085472 118.06186676 C136.71534515 120.04585479 137.41917034 122.03007783 138.12287903 124.01434326 C141.62702681 133.89154641 145.16015398 143.75813438 148.70825195 153.61962891 C149.09296441 154.68899689 149.09296441 154.68899689 149.48544884 155.77996826 C151.75672754 162.09265413 154.02976997 168.4047045 156.30337524 174.71655273 C157.25443492 177.35694862 158.20502313 179.99751343 159.15515137 182.63824463 C160.01327075 185.02308305 160.8720737 187.40767571 161.73181152 189.79193115 C165.39281311 199.96830924 168.9475372 210.1760689 172.52075195 220.38525391 C137.87075195 220.38525391 103.22075195 220.38525391 67.52075195 220.38525391 C53.52075195 177.38525391 53.52075195 177.38525391 53.52075195 174.38525391 C13.92075195 174.71525391 -25.67924805 175.04525391 -66.47924805 175.38525391 C-71.09924805 189.57525391 -75.71924805 203.76525391 -80.47924805 218.38525391 C-80.80924805 219.04525391 -81.13924805 219.70525391 -81.47924805 220.38525391 C-115.13924805 220.38525391 -148.79924805 220.38525391 -183.47924805 220.38525391 C-181.60385835 213.508825 -179.72768665 206.92549614 -177.27612305 200.27978516 C-176.96546906 199.42585678 -176.65481506 198.57192841 -176.33474731 197.69212341 C-175.65872259 195.83519276 -174.98072996 193.97897758 -174.30096436 192.12341309 C-172.41143532 186.96522156 -170.5365565 181.80169543 -168.65893555 176.63916016 C-168.25293121 175.52419159 -167.84692688 174.40922302 -167.42861938 173.26046753 C-164.09170063 164.09025222 -160.78426616 154.90965343 -157.48706055 145.72509766 C-157.23290375 145.01719904 -156.97874695 144.30930042 -156.71688843 143.57995033 C-154.43284 137.21767445 -152.15025182 130.85487497 -149.86828613 124.49185181 C-149.62666591 123.81830217 -149.38504568 123.14475254 -149.13610363 122.45079231 C-148.65601953 121.11217256 -148.17621446 119.7734527 -147.69669819 118.43462944 C-146.54554476 115.22271521 -145.38850061 112.01319093 -144.217453 108.80847168 C-142.25810872 103.42941878 -140.34650706 98.0659058 -138.69628906 92.58325195 C-135.77348716 83.12712165 -133.26887157 77.57480346 -124.23120117 72.48486328 C-123.05493164 71.89511719 -121.87866211 71.30537109 -120.66674805 70.69775391 C-119.41400772 70.01316845 -118.16470775 69.32225452 -116.91870117 68.62548828 C-114.36551318 67.20343319 -111.80042956 65.80806734 -109.22290039 64.43066406 C-103.4880856 61.33594478 -97.99815642 57.84552185 -92.47924805 54.38525391 C-90.33865617 53.06277776 -88.19671766 51.74247894 -86.0534668 50.42431641 C-84.9814502 49.76463867 -83.90943359 49.10496094 -82.80493164 48.42529297 C-76.97869447 44.85136566 -71.13596955 41.30467249 -65.29174805 37.76025391 C-64.70331116 37.4033548 -64.11487427 37.04645569 -63.50860596 36.67874146 C-60.60042671 34.9150434 -57.691985 33.15177866 -54.78344727 31.38867188 C-50.73990952 28.93697461 -46.69736583 26.48366116 -42.65722656 24.02636719 C-40.80623737 22.90136043 -38.95388489 21.77859328 -37.10009766 20.65820312 C-32.44994998 17.83990703 -27.82970514 14.98369818 -23.25375366 12.04676819 C-20.87407521 10.5212379 -18.48612137 9.0089225 -16.09771729 7.49710083 C-14.9442773 6.76152794 -13.79504136 6.01931676 -12.65032959 5.27023315 C-11.05960366 4.22972869 -9.45329292 3.21316905 -7.84643555 2.19775391 C-6.92975098 1.60607422 -6.01306641 1.01439453 -5.06860352 0.40478516 C-2.47924805 -0.61474609 -2.47924805 -0.61474609 0 0 Z M-46.47924805 57.38525391 C-48.22749645 60.8817507 -47.70633641 64.84573446 -47.72924805 68.69775391 C-47.74987305 69.55304688 -47.77049805 70.40833984 -47.79174805 71.28955078 C-47.82158663 76.10475266 -47.75941582 79.56577927 -44.47924805 83.38525391 C-40.80809374 86.29928766 -36.01034168 85.71570007 -31.54174805 85.69775391 C-30.74317383 85.71386719 -29.94459961 85.72998047 -29.12182617 85.74658203 C-24.42238917 85.75047552 -21.27250173 85.4587251 -17.47924805 82.38525391 C-14.64937026 78.14043722 -15.111349 74.50222421 -15.10424805 69.51025391 C-15.06750977 68.16253906 -15.06750977 68.16253906 -15.0300293 66.78759766 C-15.01091884 62.47500446 -15.06682402 60.05226067 -17.37768555 56.31494141 C-21.59748325 52.44025727 -25.81185121 53.13068093 -31.29174805 53.07275391 C-32.19473633 53.04375 -33.09772461 53.01474609 -34.02807617 52.98486328 C-39.44865237 52.93308702 -42.61584201 53.1613678 -46.47924805 57.38525391 Z M9.52075195 57.38525391 C8.18705154 61.38635513 8.29739721 65.07028793 8.27075195 69.26025391 C8.25012695 70.06333984 8.22950195 70.86642578 8.20825195 71.69384766 C8.17729367 76.3917668 8.35971856 79.64042605 11.52075195 83.38525391 C15.19190626 86.29928766 19.98965832 85.71570007 24.45825195 85.69775391 C25.25682617 85.71386719 26.05540039 85.72998047 26.87817383 85.74658203 C31.57761083 85.75047552 34.72749827 85.4587251 38.52075195 82.38525391 C41.35062974 78.14043722 40.888651 74.50222421 40.89575195 69.51025391 C40.93249023 68.16253906 40.93249023 68.16253906 40.9699707 66.78759766 C40.98908116 62.47500446 40.93317598 60.05226067 38.62231445 56.31494141 C34.40251675 52.44025727 30.18814879 53.13068093 24.70825195 53.07275391 C23.80526367 53.04375 22.90227539 53.01474609 21.97192383 52.98486328 C16.58120766 52.93337224 13.31192533 53.1173001 9.52075195 57.38525391 Z M-46.47924805 114.38525391 C-48.22749645 117.8817507 -47.70633641 121.84573446 -47.72924805 125.69775391 C-47.74987305 126.55304688 -47.77049805 127.40833984 -47.79174805 128.28955078 C-47.8217672 133.13389239 -47.6909711 136.47973632 -44.47924805 140.38525391 C-40.61485685 142.3174495 -35.85488016 141.61364968 -31.60424805 141.63525391 C-30.09411133 141.66619141 -30.09411133 141.66619141 -28.5534668 141.69775391 C-27.0974707 141.70548828 -27.0974707 141.70548828 -25.61206055 141.71337891 C-24.72405762 141.72272461 -23.83605469 141.73207031 -22.92114258 141.74169922 C-19.96316441 141.30992076 -18.62556345 140.439507 -16.47924805 138.38525391 C-15.09219649 134.22409923 -15.2950026 130.30559629 -15.29174805 125.94775391 C-15.27337891 124.65901367 -15.27337891 124.65901367 -15.25463867 123.34423828 C-15.25270508 122.5134375 -15.25077148 121.68263672 -15.2487793 120.82666016 C-15.24467041 120.07070557 -15.24056152 119.31475098 -15.23632812 118.53588867 C-15.51768246 116.04498383 -16.137493 114.49827377 -17.47924805 112.38525391 C-21.8253483 109.48785374 -25.74117235 110.01716347 -30.85424805 110.01025391 C-31.80041992 109.98576172 -32.7465918 109.96126953 -33.72143555 109.93603516 C-39.22148958 109.91286077 -42.57984069 110.06862601 -46.47924805 114.38525391 Z M9.52075195 114.38525391 C7.77250355 117.8817507 8.29366359 121.84573446 8.27075195 125.69775391 C8.25012695 126.55304688 8.22950195 127.40833984 8.20825195 128.28955078 C8.1782328 133.13389239 8.3090289 136.47973632 11.52075195 140.38525391 C15.3831163 142.31643608 20.08416376 141.70059855 24.33325195 141.76025391 C25.33163086 141.79763672 26.33000977 141.83501953 27.35864258 141.87353516 C31.91884452 141.92822112 34.72151607 141.86263002 38.69262695 139.49072266 C41.30235373 135.05753294 41.14387611 131.37100312 40.95825195 126.32275391 C40.95245117 125.42492187 40.94665039 124.52708984 40.94067383 123.60205078 C40.85893368 117.70684172 40.85893368 117.70684172 38.52075195 112.38525391 C34.1746517 109.48785374 30.25882765 110.01716347 25.14575195 110.01025391 C24.19958008 109.98576172 23.2534082 109.96126953 22.27856445 109.93603516 C16.77851042 109.91286077 13.42015931 110.06862601 9.52075195 114.38525391 Z " fill="#26C5EA" transform="translate(1162.479248046875,288.61474609375)"/>
<path d="M0 0 C1.23750708 0.00138269 1.23750708 0.00138269 2.50001431 0.00279331 C3.44377422 0.00141865 4.38753414 0.00004398 5.35989285 -0.00137234 C6.40358028 0.00222294 7.44726772 0.00581821 8.52258205 0.00952244 C9.61512798 0.00937641 10.70767391 0.00923038 11.83332729 0.00907993 C15.46405899 0.00977961 19.09474012 0.01757454 22.72546291 0.02539158 C25.2351011 0.02725557 27.74473964 0.02867956 30.25437832 0.0296793 C36.1971526 0.03311435 42.1399105 0.0410051 48.08267635 0.05102879 C55.50982591 0.0632853 62.93697771 0.06866991 70.36413479 0.0742197 C83.6187014 0.08495972 96.87325287 0.101847 110.12780666 0.12304783 C110.70991929 1.7428395 111.29203192 3.36263116 111.87414455 4.98242283 C112.45478161 6.59810658 112.45478161 6.59810658 113.0471487 8.2464304 C113.93442013 10.71536229 114.82168859 13.18429526 115.7089529 15.65322971 C117.97795864 21.96703518 120.24699666 28.28082904 122.51616287 34.59457684 C123.84766794 38.29937261 125.17914936 42.00417688 126.51061916 45.70898533 C126.78139467 46.46241592 127.05217018 47.21584652 127.33115101 47.99210835 C131.12637552 58.55242439 134.92044733 69.11315389 138.71363163 79.67420292 C140.25486107 83.96517132 141.79631931 88.25605753 143.33778572 92.5469408 C144.56051524 95.95064455 145.7830879 99.35440446 147.00527859 102.75830173 C148.37768967 106.58057096 149.75077117 110.40259904 151.12390041 114.22461033 C151.55149151 115.41572422 151.9790826 116.60683811 152.419631 117.83404636 C154.45029334 123.48448685 156.49251207 129.13021468 158.56188869 134.76660252 C159.12747242 136.30941395 159.12747242 136.30941395 159.70448208 137.88339329 C160.40726209 139.79724082 161.11277638 141.71008737 161.82151699 143.62173557 C162.12763409 144.45538639 162.43375118 145.28903721 162.74914455 146.14795017 C163.01707317 146.87219181 163.28500179 147.59643345 163.56104946 148.3426218 C164.12780666 150.12304783 164.12780666 150.12304783 164.12780666 152.12304783 C159.10400942 150.38792107 154.7671985 147.62354992 150.25280666 144.87304783 C148.93820461 144.0778574 148.93820461 144.0778574 147.59704494 143.26660252 C144.77163499 141.55589534 141.94962571 139.83967049 139.12780666 138.12304783 C137.28936943 137.00829225 135.4508282 135.89370815 133.61218166 134.77929783 C123.46684982 128.62255411 113.3528084 122.4163233 103.25280666 116.18554783 C94.24401658 110.62992355 85.20342036 105.13104722 76.12780666 99.68554783 C74.51543118 98.71790501 74.51543118 98.71790501 72.87048244 97.73071384 C65.78654243 93.49063652 61.55212824 91.00835096 53.12780666 92.12304783 C50.5037655 93.21769756 50.5037655 93.21769756 47.95202541 94.74414158 C46.99352688 95.29062351 46.03502834 95.83710545 45.0474844 96.40014744 C40.46670194 99.10326491 35.90834214 101.83643582 31.37780666 104.62304783 C29.34791459 105.86532658 27.31796508 107.10751148 25.28796291 108.34961033 C23.75099758 109.29175388 23.75099758 109.29175388 22.18298244 110.25293064 C18.33718402 112.60699936 14.48356741 114.94805248 10.62951565 117.28857517 C1.50717283 122.82988205 -7.59475194 128.40376663 -16.68469334 133.99804783 C-17.75187595 134.65329441 -18.81905857 135.30854099 -19.91858006 135.98364353 C-25.07788939 139.15476705 -30.22760122 142.33932795 -35.35072422 145.56854343 C-37.7541589 147.0822515 -40.16224216 148.58847085 -42.57077122 150.09405613 C-43.72354882 150.81763493 -44.87399907 151.54493583 -46.02200413 152.27606297 C-47.61079217 153.28762117 -49.20810063 154.28575963 -50.80578709 155.28320408 C-51.71385105 155.85691746 -52.62191502 156.43063084 -53.55749607 157.02172947 C-55.87219334 158.12304783 -55.87219334 158.12304783 -58.87219334 157.12304783 C-47.38817175 124.9193492 -35.87146584 92.72791487 -24.27262974 60.56535435 C-21.86469837 53.88535195 -19.46506298 47.20241372 -17.07006931 40.51776218 C-15.39002341 35.82887495 -13.70796905 31.14070928 -12.02581882 26.45257664 C-11.21928115 24.20297406 -10.41372854 21.95301804 -9.60919285 19.70269871 C-8.50016726 16.60101713 -7.3877369 13.50057698 -6.27453709 10.40039158 C-5.7774902 9.0059457 -5.7774902 9.0059457 -5.27040195 7.5833292 C-4.96746723 6.74170734 -4.66453251 5.90008549 -4.35241795 5.03295994 C-4.08916218 4.29774616 -3.82590641 3.56253239 -3.55467319 2.80503941 C-2.63972402 0.55012041 -2.46988364 0.16233036 0 0 Z " fill="#26C5EA" transform="translate(1102.8721933364868,168.87695217132568)"/>
<path d="M0 0 C1.2799382 -0.00467997 2.55987639 -0.00935994 3.8786006 -0.01418173 C7.39709576 -0.02660108 10.915344 -0.02056324 14.43383956 -0.01122308 C18.24168097 -0.00439535 22.04948188 -0.01493215 25.85731506 -0.02316284 C33.303359 -0.03646288 40.74931193 -0.03363913 48.19535935 -0.02492492 C54.24999302 -0.01813405 60.30460128 -0.01723771 66.35923767 -0.02049637 C67.65463394 -0.02118592 67.65463394 -0.02118592 68.97619984 -0.0218894 C70.73089366 -0.02284863 72.48558748 -0.02382127 74.24028128 -0.02480717 C90.67206588 -0.03335014 107.10380017 -0.02354411 123.53557652 -0.00740607 C137.61737079 0.00599612 151.69909086 0.00366771 165.78088379 -0.01016235 C182.15615894 -0.02623751 198.53139006 -0.03252627 214.906672 -0.02332556 C216.65470536 -0.02236997 218.40273872 -0.02142686 220.15077209 -0.02049637 C221.44067927 -0.01980213 221.44067927 -0.01980213 222.75664517 -0.01909386 C228.80000875 -0.01650978 234.84334426 -0.0208624 240.88670349 -0.02793503 C248.25726834 -0.03637176 255.62773741 -0.03402437 262.99829137 -0.0180928 C266.75475925 -0.01023921 270.51106776 -0.00706837 274.26753426 -0.01704025 C278.34849658 -0.02770924 282.42906077 -0.0149216 286.51000977 0 C288.27210069 -0.01003825 288.27210069 -0.01003825 290.06978941 -0.02027929 C304.76102696 0.08356388 317.86706765 3.96466176 328.71594238 14.14266968 C337.19623677 23.45149857 341.13862308 35.13305113 340.96984863 47.60360718 C340.01207772 59.98497292 334.88730771 70.95245339 325.75500488 79.38095093 C314.49393748 87.89500037 302.82198458 91.36653549 288.75500488 90.38095093 C274.73324303 88.26351483 263.65283305 82.35102579 254.89562988 70.96298218 C249.65360393 62.80151107 247.75500488 55.02888237 247.75500488 45.38095093 C256.00500488 45.38095093 264.25500488 45.38095093 272.75500488 45.38095093 C274.07500488 49.01095093 275.39500488 52.64095093 276.75500488 56.38095093 C279.7539077 61.60126324 284.14823787 63.6572176 289.75500488 65.38095093 C295.44390342 66.34155293 300.73407799 65.08535576 305.75500488 62.38095093 C310.08069792 58.72814347 313.420981 54.99747133 314.15344238 49.25985718 C314.14331979 40.90493129 314.14331979 40.90493129 310.75500488 33.38095093 C310.42500488 32.39095093 310.09500488 31.40095093 309.75500488 30.38095093 C308.10870295 29.26160019 308.10870295 29.26160019 305.75500488 28.38095093 C304.09061497 27.6192991 304.09061497 27.6192991 302.39260101 26.84226036 C296.72565109 24.74193334 291.09265223 24.96591778 285.1159668 25 C283.85295825 24.99532003 282.58994969 24.99064006 281.28866816 24.98581827 C277.79901939 24.97333724 274.30961792 24.97946528 270.81996846 24.98877692 C267.05030628 24.99557903 263.28068591 24.98508044 259.5110321 24.97683716 C252.13262495 24.96351 244.75430944 24.96637302 237.37589872 24.97507508 C231.37834318 24.98185522 225.38081328 24.98276692 219.383255 24.97950363 C218.52906208 24.97904393 217.67486916 24.97858423 216.79479161 24.9781106 C215.05941672 24.97715141 213.32404185 24.97617877 211.58866698 24.97519283 C195.32297984 24.96664192 179.05734347 24.97646838 162.79166466 24.99259393 C148.84045448 25.00599684 134.88931918 25.00366866 120.93811035 24.98983765 C104.72990546 24.97377656 88.52174504 24.96746586 72.31353331 24.97667444 C70.58460713 24.97763007 68.85568095 24.97857318 67.12675476 24.97950363 C66.27613029 24.97996646 65.42550581 24.98042928 64.54910484 24.98090614 C58.56001349 24.98349444 52.57095038 24.97912847 46.5818634 24.97206497 C39.28135461 24.9636439 31.98094257 24.96594286 24.68044484 24.9819072 C20.95690406 24.98978177 17.23352449 24.99289549 13.50998497 24.98295975 C9.47119779 24.97234594 5.4328163 24.98503467 1.39404297 25 C-0.36627203 24.98996175 -0.36627203 24.98996175 -2.16214895 24.97972071 C-9.42047784 25.0319421 -15.7626767 25.41829238 -21.52233887 30.31845093 C-22.34411621 31.33938843 -22.34411621 31.33938843 -23.18249512 32.38095093 C-23.74839355 33.06157593 -24.31429199 33.74220093 -24.89733887 34.44345093 C-28.36789691 39.43300685 -27.65420192 45.567126 -27.24499512 51.38095093 C-25.5135626 56.88079541 -21.89453676 60.16817752 -17.24499512 63.38095093 C-11.77100528 65.94324404 -6.3925759 66.4573755 -0.68640137 64.50595093 C4.92849665 61.96965227 9.22682921 59.14308464 11.75500488 53.38095093 C12.41500488 50.74095093 13.07500488 48.10095093 13.75500488 45.38095093 C22.00500488 45.38095093 30.25500488 45.38095093 38.75500488 45.38095093 C38.75500488 58.22524218 34.89619984 67.96506724 26.25500488 77.56845093 C16.3790445 86.91364953 3.21022996 90.90219756 -10.13171387 90.63095093 C-23.40493978 89.5650959 -35.24740037 84.25762102 -44.24499512 74.38095093 C-50.74757767 65.45054826 -53.80992175 57.0808993 -53.68249512 46.06845093 C-53.67347168 45.13855347 -53.66444824 44.20865601 -53.65515137 43.25057983 C-53.34835998 31.08757977 -49.26783654 22.54572964 -41.24499512 13.38095093 C-38.7424251 11.04327893 -36.17022896 9.1545179 -33.24499512 7.38095093 C-32.63140137 7.00454468 -32.01780762 6.62813843 -31.38562012 6.24032593 C-21.61915667 0.83244947 -10.95053837 -0.06238283 0 0 Z " fill="#187E96" transform="translate(58.2449951171875,151.61904907226563)"/>
<path d="M0 0 C1.18480957 0.00829834 2.36961914 0.01659668 3.59033203 0.02514648 C22.60472803 0.39135932 38.95780671 6.9858223 52.6875 20.4375 C59.12537444 28.03505889 64.12092356 35.56664502 65.6875 45.4375 C60.81300911 45.61117998 55.94033603 45.73785478 51.06347656 45.82202148 C49.40658177 45.8571197 47.7499022 45.90481347 46.09375 45.96557617 C32.2630487 46.46012348 32.2630487 46.46012348 28.41821289 43.96459961 C26.96655696 42.19544509 25.85113023 40.40215226 24.6875 38.4375 C15.06757452 31.51396239 4.39569858 29.05025016 -7.23046875 30.90234375 C-18.51805723 33.32009084 -26.62513508 39.01164402 -33.3125 48.4375 C-38.99661011 59.32930637 -39.90696137 70.98225046 -36.34765625 82.703125 C-32.54910439 92.73703557 -26.37964229 100.29887136 -16.5625 104.8125 C-7.30536348 108.64189101 4.92977747 109.3646477 14.375 105.6875 C15.83301098 104.97819736 17.27433595 104.23240478 18.6875 103.4375 C19.739375 102.86 20.79125 102.2825 21.875 101.6875 C26.91054017 97.65906786 30.80267993 93.20714014 33.6875 87.4375 C23.7875 87.4375 13.8875 87.4375 3.6875 87.4375 C3.6875 78.1975 3.6875 68.9575 3.6875 59.4375 C25.1375 59.4375 46.5875 59.4375 68.6875 59.4375 C68.6875 84.8475 68.6875 110.2575 68.6875 136.4375 C59.7775 136.4375 50.8675 136.4375 41.6875 136.4375 C41.3575 132.1475 41.0275 127.8575 40.6875 123.4375 C39.635625 124.46875 38.58375 125.5 37.5 126.5625 C24.25986746 138.13587827 8.14346753 139.31420606 -8.59326172 138.6328125 C-28.1243 137.22997262 -44.62617494 126.91292218 -57.3125 112.4375 C-70.3891075 95.44841355 -72.50011231 74.68183092 -70.01220703 53.93310547 C-66.89074042 36.37734101 -55.8115815 21.55736938 -41.44921875 11.40625 C-28.43170489 3.23585525 -15.27873105 -0.13858012 0 0 Z " fill="#187E96" transform="translate(70.3125,-0.4375)"/>
<path d="M0 0 C1.16466797 -0.020625 2.32933594 -0.04125 3.52929688 -0.0625 C23.56137024 -0.15177944 39.12919403 7.43024187 53.62109375 20.87890625 C66.49561102 34.05737503 71.82373639 51.26897674 72.3125 69.3125 C71.87983981 85.84764367 67.00448091 100.20281728 56.9375 113.25 C55.7928125 114.796875 55.7928125 114.796875 54.625 116.375 C42.02211772 129.85715314 24.95438007 137.58746937 6.59375 138.62890625 C-14.04925028 139.30360793 -32.63967221 134.54447094 -48.53515625 120.6796875 C-62.46305711 107.28995901 -69.80563903 90.93057708 -70.41162109 71.57006836 C-70.62339885 52.58399309 -65.25166418 36.84296095 -53.0625 22.25 C-52.24845703 21.26386719 -52.24845703 21.26386719 -51.41796875 20.2578125 C-38.06524719 5.58672096 -19.17906704 0.08298136 0 0 Z M-30.59765625 44.17578125 C-37.64758593 54.15848167 -39.26946954 65.24065305 -38.0625 77.25 C-35.68930406 88.30693562 -29.039289 96.62667628 -20.0625 103.25 C-9.98476136 109.29664318 2.06270786 110.05171025 13.4375 107.44921875 C24.62729997 103.20933361 32.89593566 95.02061472 37.9375 84.25 C41.63738174 74.15941345 41.25272689 62.09625182 36.9375 52.25 C31.65265882 42.26165017 24.67295636 35.05484105 13.8671875 31.13671875 C-2.75282817 26.65228997 -19.43594091 30.38777995 -30.59765625 44.17578125 Z " fill="#187E96" transform="translate(601.0625,-0.25)"/>
<path d="M0 0 C16.6753125 -0.12375 16.6753125 -0.12375 33.6875 -0.25 C38.91339966 -0.30462402 38.91339966 -0.30462402 44.24487305 -0.36035156 C48.56604004 -0.37841797 48.56604004 -0.37841797 50.60188293 -0.3817749 C51.99553061 -0.38783628 53.38916003 -0.40173209 54.78266907 -0.42230225 C70.82809648 -0.64689553 83.22777565 2.7484205 95.1875 13.625 C103.29487219 22.1207493 106.93457658 32.83141823 107.02734375 44.4140625 C106.4255031 58.58046545 101.91191572 68.57777398 91.6875 78.25 C87.49102914 81.87552245 83.19894466 84.1318213 78 86 C81.69016964 93.74245874 86.18465064 99.30941836 94 103 C98.62 103.66 103.24 104.32 108 105 C108 114.57 108 124.14 108 134 C91.58825705 134.5470581 76.05406929 133.58978917 63.05004883 122.30834961 C57.73939587 117.17052251 53.93851985 111.65382985 50.1875 105.3125 C49.62869141 104.38888672 49.06988281 103.46527344 48.49414062 102.51367188 C46.98513319 100.01544622 45.49063142 97.50921662 44 95 C43.44610596 94.11723389 42.89221191 93.23446777 42.3215332 92.32495117 C41 90 41 90 41 88 C37.7 88 34.4 88 31 88 C31 103.18 31 118.36 31 134 C20.77 134 10.54 134 0 134 C0 89.78 0 45.56 0 0 Z M31 29 C31 39.56 31 50.12 31 61 C35.5908602 61.09212428 40.17848115 61.17166281 44.76953125 61.21972656 C46.32921244 61.23977222 47.88881913 61.26701657 49.44824219 61.30175781 C51.69745314 61.35059126 53.9456659 61.37303815 56.1953125 61.390625 C56.8861795 61.41127014 57.57704651 61.43191528 58.28884888 61.45318604 C63.335627 61.45549546 66.10328741 60.132553 70 57 C73.31664822 53.32479522 74.82430791 50.79205934 75.3125 45.8125 C74.82475303 39.86198695 72.76047794 35.67460097 68.4375 31.5625 C64.21631547 28.85661248 60.55232542 28.8656523 55.70703125 28.90234375 C54.41514893 28.90484131 53.1232666 28.90733887 51.79223633 28.90991211 C50.14892334 28.91901611 48.50561035 28.92812012 46.8125 28.9375 C41.594375 28.958125 36.37625 28.97875 31 29 Z " fill="#187E96" transform="translate(159,2)"/>
<path d="M0 0 C9.9 0 19.8 0 30 0 C30.01981934 2.43689209 30.03963867 4.87378418 30.06005859 7.38452148 C30.12713103 15.45914097 30.20476771 23.5336344 30.28752708 31.60810757 C30.33735532 36.50099826 30.38368606 41.39386876 30.421875 46.28686523 C30.4588986 51.01374525 30.5053038 55.74045061 30.55806351 60.46718025 C30.57651709 62.26554343 30.59165795 64.06394392 30.60334396 65.86236382 C30.62036214 68.39206492 30.64943255 70.92137386 30.68115234 73.45092773 C30.68331253 74.18533081 30.68547272 74.91973389 30.68769836 75.6763916 C30.82324735 84.20423881 32.26218314 92.41585515 38 99 C45.55195415 104.94421391 52.53635222 105.76940226 62 105 C68.74269919 103.34669414 73.29687361 99.80954932 77 94 C79.60587577 88.10284527 80.44440741 82.56932881 80.43237305 76.17553711 C80.4425647 75.34516937 80.45275635 74.51480164 80.46325684 73.65927124 C80.49315135 70.94855802 80.50261636 68.23819948 80.51171875 65.52734375 C80.52858294 63.63447416 80.54673551 61.74161564 80.56611633 59.84877014 C80.6134335 54.892298 80.64336083 49.93587081 80.66955566 44.97924805 C80.69945382 39.91120533 80.74595219 34.84331717 80.79101562 29.77539062 C80.87684068 19.8503239 80.94274185 9.92527268 81 0 C91.23 0 101.46 0 112 0 C112.04533997 11.0057557 112.08196726 22.01144848 112.10362434 33.01727676 C112.11402315 38.12874089 112.12811041 43.24013732 112.15087891 48.3515625 C112.17274729 53.29232185 112.18459791 58.23301644 112.18975449 63.1738205 C112.19342527 65.05068734 112.20059277 66.92755098 112.21146011 68.80438995 C112.32365932 89.00075563 110.53282329 105.88762419 95.97265625 121.12109375 C83.96978215 132.60304745 69.59295426 136.49473853 53.4140625 136.3515625 C38.32740737 135.94320191 25.23583387 130.95530282 14.25390625 120.4140625 C6.3644544 111.96400836 -0.13633942 100.89116951 -0.12025452 88.98834229 C-0.12162918 88.2003273 -0.12300385 87.41231232 -0.12442017 86.60041809 C-0.12082489 85.74518051 -0.11722961 84.88994293 -0.11352539 84.00878906 C-0.11367142 83.10112289 -0.11381744 82.19345673 -0.1139679 81.25828552 C-0.11327171 78.26070763 -0.10549302 75.26319202 -0.09765625 72.265625 C-0.09579103 70.1862593 -0.09436762 68.10689315 -0.09336853 66.02752686 C-0.08955157 60.55636378 -0.07972826 55.08522728 -0.06866455 49.61407471 C-0.05843281 44.03048054 -0.05386713 38.44688209 -0.04882812 32.86328125 C-0.03810528 21.90884062 -0.02051509 10.95442668 0 0 Z " fill="#187E96" transform="translate(281,2)"/>
<path d="M0 0 C11.281875 -0.0825 22.56375 -0.165 34.1875 -0.25 C37.72364014 -0.28641602 41.25978027 -0.32283203 44.90307617 -0.36035156 C49.28771973 -0.37841797 49.28771973 -0.37841797 51.35322571 -0.3817749 C52.76770594 -0.38783778 54.18216813 -0.40173689 55.59651184 -0.42230225 C71.59204623 -0.64285533 84.18686588 2.71121576 96.1875 13.625 C105.84467495 23.68696671 108.46351992 35.80768354 108.25 49.24609375 C107.47798859 60.83832751 102.65790261 72.07426674 94 80 C90.48426074 82.66071147 86.92410925 84.9887182 83 87 C82.32267822 87.35884277 81.64535645 87.71768555 80.94750977 88.08740234 C71.23497019 92.45452017 60.72003943 91.43111916 50.3125 91.25 C40.2578125 91.12625 40.2578125 91.12625 30 91 C30 105.19 30 119.38 30 134 C20.1 134 10.2 134 0 134 C0 89.78 0 45.56 0 0 Z M30 29 C30 39.89 30 50.78 30 62 C34.8756298 62.09208955 39.74821519 62.17164167 44.62402344 62.21972656 C46.28070325 62.23978009 47.93731282 62.26703029 49.59375 62.30175781 C51.98194758 62.35055512 54.36920547 62.37303064 56.7578125 62.390625 C57.49242706 62.41127014 58.22704163 62.43191528 58.98391724 62.45318604 C64.16034363 62.45541934 67.01112223 61.24591688 71 58 C75.62280935 52.75248668 76.35331 49.6524561 76.28125 42.76171875 C75.75919674 37.63544581 73.12436465 35.01467054 69.4375 31.6875 C65.14695708 28.71712413 61.29015481 28.86676013 56.26953125 28.90234375 C55.14390022 28.90446617 55.14390022 28.90446617 53.99552917 28.90663147 C51.6011454 28.9122244 49.20685547 28.92477556 46.8125 28.9375 C45.18815239 28.94251592 43.56380332 28.94707866 41.93945312 28.95117188 C37.95957025 28.9613402 33.97989007 28.98091688 30 29 Z " fill="#187E96" transform="translate(415,2)"/>
<path d="M0 0 C8.25 0 16.5 0 25 0 C25 91.74 25 183.48 25 278 C7 283 7 283 0 284 C0 190.28 0 96.56 0 0 Z " fill="#187E96" transform="translate(119,240)"/>
<path d="M0 0 C8.25 0 16.5 0 25 0 C25 87.45 25 174.9 25 265 C7 270 7 270 0 271 C0 181.57 0 92.14 0 0 Z " fill="#187E96" transform="translate(170,240)"/>
<path d="M0 0 C8.25 0 16.5 0 25 0 C25 82.83 25 165.66 25 251 C5.5 257 5.5 257 0 257 C0 172.19 0 87.38 0 0 Z " fill="#187E96" transform="translate(224,240)"/>
<path d="M0 0 C8.25 0 16.5 0 25 0 C25 78.54 25 157.08 25 238 C4 244 4 244 0 244 C0 163.48 0 82.96 0 0 Z " fill="#187E96" transform="translate(275,240)"/>
<path d="M0 0 C56.43 0 112.86 0 171 0 C171 7.92 171 15.84 171 24 C114.57 24 58.14 24 0 24 C0 16.08 0 8.16 0 0 Z " fill="#187E96" transform="translate(116,198)"/>
</svg>
